<svg width="530" height="317" viewBox="0 0 530 317" fill="none" xmlns="http://www.w3.org/2000/svg">
<g clip-path="url(#clip0)">
<path d="M461.658 317C499.402 317 530 313.795 530 309.84C530 305.886 499.402 302.681 461.658 302.681C423.914 302.681 393.316 305.886 393.316 309.84C393.316 313.795 423.914 317 461.658 317Z" fill="#3F3D56"/>
<path d="M206.321 10.5055H0V114.415H206.321V10.5055Z" fill="#F2F2F2"/>
<path d="M219.335 0.382019H13.0134V104.291H219.335V0.382019Z" stroke="#3F3D56" stroke-width="2" stroke-miterlimit="10"/>
<path d="M147.864 77.5377C154.085 72.5157 158.322 66.1171 160.038 59.1513C161.754 52.1855 160.874 44.9652 157.507 38.4036C154.14 31.8419 148.439 26.2336 141.124 22.2877C133.809 18.3419 125.208 16.2358 116.411 16.2358V52.1457L147.864 77.5377Z" fill="#3F3D56"/>
<path d="M116.411 16.2358C106.524 16.2368 96.919 18.8965 89.1131 23.795C81.3071 28.6934 75.7449 35.5515 73.3048 43.2862C70.8646 51.0208 71.6856 59.1913 75.6381 66.5074C79.5906 73.8234 86.4493 79.868 95.1312 83.6868L116.411 52.1457V16.2358Z" fill="#3CD154"/>
<path d="M147.864 77.5377L116.411 52.1457L95.1312 83.6868C103.566 87.3916 113.259 88.7947 122.764 87.6865C132.268 86.5782 141.073 83.0181 147.864 77.5377Z" fill="#666666"/>
<path d="M29.3393 82.7072H20.8214V89.5836H29.3393V82.7072Z" fill="#3CD154"/>
<path d="M41.6429 82.7072H33.125V89.5836H41.6429V82.7072Z" fill="#3F3D56"/>
<path d="M53.9464 82.7072H45.4286V89.5836H53.9464V82.7072Z" fill="#666666"/>
<path d="M203.009 84.2353H167.991V85.3813H203.009V84.2353Z" fill="#3F3D56"/>
<path d="M203.009 87.6735H167.991V88.8195H203.009V87.6735Z" fill="#3F3D56"/>
<path d="M203.009 91.1116H167.991V92.2577H203.009V91.1116Z" fill="#3F3D56"/>
<path d="M182.188 155.291H64.8304V259.2H182.188V155.291Z" fill="#F2F2F2"/>
<path d="M194.018 145.358H76.6607V249.268H194.018V145.358Z" stroke="#3F3D56" stroke-width="2" stroke-miterlimit="10"/>
<path d="M89.1401 237.545H82.8125V242.653H89.1401V237.545Z" fill="#3CD154"/>
<path d="M98.2799 237.545H91.9523V242.653H98.2799V237.545Z" fill="#3F3D56"/>
<path d="M107.42 237.545H101.092V242.653H107.42V237.545Z" fill="#666666"/>
<path d="M178.402 239.764H153.795V240.569H178.402V239.764Z" fill="#3F3D56"/>
<path d="M178.402 242.18H153.795V242.985H178.402V242.18Z" fill="#3F3D56"/>
<path d="M178.402 244.596H153.795V245.401H178.402V244.596Z" fill="#3F3D56"/>
<path d="M135.339 163.695V172.1C141.516 172.1 147.555 173.579 152.691 176.349C157.827 179.119 161.83 183.057 164.194 187.664C166.558 192.271 167.176 197.341 165.971 202.232C164.766 207.123 161.792 211.615 157.424 215.142L164.785 221.084C170.609 216.383 174.575 210.393 176.182 203.872C177.789 197.35 176.964 190.591 173.812 184.448C170.66 178.305 165.323 173.055 158.475 169.361C151.627 165.667 143.575 163.695 135.339 163.695V163.695Z" fill="#3F3D56"/>
<path d="M164.785 221.084L157.424 215.142C152.084 219.453 144.99 222.056 137.455 222.469C129.92 222.881 122.455 221.075 116.443 217.385L110.142 224.078C118.159 228.997 128.112 231.404 138.159 230.854C148.206 230.303 157.665 226.833 164.785 221.084Z" fill="#666666"/>
<path d="M104.107 197.313C104.107 190.626 107.398 184.213 113.255 179.485C119.112 174.756 127.056 172.1 135.339 172.1V163.695C126.622 163.695 118.124 165.904 111.044 170.01C103.964 174.115 98.6585 179.911 95.8755 186.581C93.0925 193.25 92.9723 200.456 95.5318 207.183C98.0914 213.91 103.202 219.82 110.142 224.078L116.443 217.385C112.607 215.035 109.496 212.001 107.356 208.518C105.216 205.036 104.104 201.201 104.107 197.313V197.313Z" fill="#3CD154"/>
<path d="M440.858 53.8622C440.858 53.8622 438.927 65.4414 443.892 66.7775C448.857 68.1136 447.478 78.3568 447.478 78.3568L432.583 87.4865L419.343 88.3773L416.033 74.5712L417.964 71.0084C417.964 71.0084 425.411 63.8827 420.17 56.5343C414.929 49.1859 440.858 53.8622 440.858 53.8622Z" fill="#FFB9B9"/>
<path opacity="0.1" d="M440.858 53.8622C440.858 53.8622 438.927 65.4414 443.892 66.7775C448.857 68.1136 447.478 78.3568 447.478 78.3568L432.583 87.4865L419.343 88.3773L416.033 74.5712L417.964 71.0084C417.964 71.0084 425.411 63.8827 420.17 56.5343C414.929 49.1859 440.858 53.8622 440.858 53.8622Z" fill="black"/>
<path d="M427.066 144.047L409.689 177.003C409.689 177.003 396.173 170.768 388.174 171.436C380.174 172.104 370.244 164.31 370.244 164.31L380.174 125.564L398.655 84.369L424.308 97.507L427.066 144.047Z" fill="#666666"/>
<path opacity="0.1" d="M427.066 144.047L409.689 177.003C409.689 177.003 396.173 170.768 388.174 171.436C380.174 172.104 370.244 164.31 370.244 164.31L380.174 125.564L398.655 84.369L424.308 97.507L427.066 144.047Z" fill="black"/>
<path d="M454.374 284.111V294.799H441.961L443.892 282.33L454.374 284.111Z" fill="#666666"/>
<path d="M486.646 265.629L495.749 270.082L489.129 282.33L482.233 281.661L475.613 274.091L486.646 265.629Z" fill="#666666"/>
<path d="M456.856 140.929L473.131 171.881C473.131 171.881 467.338 206.174 467.614 209.069C467.89 211.963 468.166 213.077 466.787 215.526C465.407 217.976 464.856 219.534 465.683 222.429C466.511 225.324 466.786 226.437 466.235 227.551C465.683 228.664 461.821 274.536 459.891 277.653C457.96 280.771 460.994 285.892 459.063 286.338C457.132 286.783 442.789 285.67 441.961 282.998C441.134 280.325 444.72 273.868 442.789 271.864C440.858 269.86 443.065 197.712 440.306 192.813C437.548 187.914 407.206 183.461 407.206 183.461C407.206 183.461 404.448 169.209 406.103 166.983C407.758 164.756 409.964 150.727 409.964 150.727L456.856 140.929Z" fill="#2F2E41"/>
<path d="M440.858 293.018C440.858 293.018 448.581 285.67 455.201 293.018C455.201 293.018 455.753 301.703 460.442 303.484C465.131 305.265 462.925 312.391 456.305 312.614C449.685 312.836 441.134 313.727 440.858 310.832C440.582 307.938 441.961 306.156 439.479 305.265C436.996 304.375 439.479 299.253 439.479 299.253L440.858 293.018Z" fill="#2F2E41"/>
<path d="M441.685 186.578C441.685 186.578 441.41 202.611 439.479 204.838C437.548 207.064 436.445 208.401 437.548 210.85C438.651 213.299 440.306 217.753 439.479 218.644C438.651 219.534 440.306 224.211 440.306 224.211C440.306 224.211 461.546 232.45 471.476 249.596C471.476 249.596 481.682 263.179 484.716 263.402C487.75 263.625 491.336 261.843 489.681 266.965C488.026 272.086 481.682 278.767 476.992 278.099C472.303 277.431 468.717 270.973 468.717 270.973C468.717 270.973 432.031 240.912 428.17 240.021C424.308 239.13 413.274 232.004 411.344 227.551C409.413 223.097 405.275 185.91 407.206 183.461C409.137 181.011 416.309 177.671 416.309 177.671L441.685 186.578Z" fill="#2F2E41"/>
<path d="M489.405 264.738C489.405 264.738 506.507 265.183 506.782 268.524C507.058 271.864 499.611 291.682 500.714 296.358C501.817 301.034 492.163 311.723 485.819 309.496C479.475 307.269 484.44 295.69 484.44 295.69C484.44 295.69 478.096 279.88 479.199 279.657C480.302 279.435 491.336 276.763 490.784 274.09C490.232 271.418 489.405 264.738 489.405 264.738Z" fill="#2F2E41"/>
<path d="M428.032 65.7755C437.477 65.7755 445.133 59.5943 445.133 51.9694C445.133 44.3446 437.477 38.1634 428.032 38.1634C418.587 38.1634 410.93 44.3446 410.93 51.9694C410.93 59.5943 418.587 65.7755 428.032 65.7755Z" fill="#FFB9B9"/>
<path d="M445.271 73.2352C445.271 73.2352 435.893 81.2516 428.997 79.9155C422.101 78.5794 418.515 69.0043 418.515 69.0043L406.103 67.2229C406.103 67.2229 397.276 98.8431 397.276 101.961C397.276 105.078 406.103 138.702 406.103 144.715C406.103 150.727 398.931 154.29 409.964 154.067C420.998 153.845 415.757 150.95 431.755 150.727C447.754 150.504 450.236 153.399 453.546 148.723C455.804 145.672 458.59 142.898 461.821 140.484L456.029 124.006L455.201 77.466C455.201 77.466 448.129 66.3322 444.907 67.2229C444.907 67.2229 446.65 72.1218 445.271 73.2352Z" fill="#3CD154"/>
<path d="M441.874 65.2534C441.874 65.2534 456.581 66.5548 460.718 69.0043C464.856 71.4537 476.441 73.2351 476.165 75.0166C475.889 76.798 462.649 102.183 462.649 102.183C462.649 102.183 456.581 122.224 461.821 126.901C467.062 131.577 486.647 182.57 483.337 186.801C480.027 191.032 469.545 173.885 469.545 173.885C469.545 173.885 455.477 137.144 447.754 130.909C440.031 124.674 439.479 91.0494 439.479 89.4906C439.479 87.9319 441.874 65.2534 441.874 65.2534Z" fill="#666666"/>
<path d="M420.362 67.8361C420.362 67.8361 402.241 62.3239 395.897 64.5507C389.553 66.7775 385.691 67.2228 385.691 67.2228L383.484 89.0453C383.484 89.0453 382.657 120.443 375.485 128.014C368.313 135.585 363.624 167.205 364.728 170.323C365.831 173.44 362.797 178.784 367.486 177.448C372.175 176.112 385.139 145.383 385.139 145.383C385.139 145.383 385.139 127.791 392.863 122.892C400.586 117.993 413.274 97.7297 413.826 92.8308C414.378 87.9319 419.619 74.3485 419.619 74.3485L420.362 67.8361Z" fill="#666666"/>
<path d="M482.509 138.034C482.509 138.034 474.234 150.504 473.131 152.731C472.027 154.958 464.304 170.1 453.271 166.76C442.237 163.42 464.028 147.164 464.028 147.164L468.993 133.581C468.993 133.581 481.957 131.354 482.509 138.034Z" fill="#FFB9B9"/>
<path d="M388.449 67.2228H385.691C385.691 67.2228 382.933 65.4414 379.623 66.5548C376.313 67.6682 368.589 66.1095 368.589 66.7775C368.589 67.4455 360.038 64.7734 356.453 66.1095C352.867 67.4455 339.902 67.8909 339.902 67.8909C339.902 67.8909 334.662 78.5794 338.247 80.5835C341.833 82.5876 347.074 81.0289 349.557 82.5876C352.039 84.1464 356.728 82.3649 358.383 84.369C360.038 86.3731 366.107 89.936 367.486 87.7092C368.865 85.4824 366.107 83.4783 371.899 85.9278C377.692 88.3772 386.794 88.3772 386.794 88.3772L388.449 67.2228Z" fill="#666666"/>
<path d="M429.573 41.7689C427.259 41.3372 424.857 41.8156 422.513 42.1257C420.169 42.4358 417.586 42.538 415.603 41.4823C414.139 40.7026 413.239 39.4127 412.393 38.1719C412.04 37.7288 411.805 37.2314 411.703 36.7113C411.603 35.7936 412.326 34.9564 413.094 34.275C416.661 31.1101 421.873 29.3778 427.129 28.8276C431.45 28.3752 435.954 28.6782 439.944 30.0909C443.934 31.5036 447.364 34.0908 448.933 37.3721C449.655 39.0515 450.106 40.7991 450.275 42.5717C450.512 43.8759 450.542 45.1992 450.366 46.5096C450.154 47.481 449.838 48.4356 449.42 49.3625L446.822 55.6967C446.635 56.2952 446.286 56.8529 445.8 57.3294C445.55 57.5628 445.214 57.7247 444.84 57.7907C444.467 57.8567 444.078 57.8233 443.73 57.6956C443.938 57.0076 443.97 56.2925 443.823 55.5943C443.742 55.2463 443.533 54.9259 443.224 54.6745C442.915 54.423 442.52 54.252 442.09 54.1834C441.132 54.1014 440.314 54.7007 439.406 54.9589C438.969 55.0634 438.509 55.0939 438.057 55.0482C437.605 55.0026 437.169 54.8819 436.778 54.6937C436.386 54.5055 436.047 54.2539 435.782 53.9547C435.516 53.6555 435.331 53.3152 435.236 52.9553C435.093 52.2311 435.333 51.4559 434.993 50.7758C434.595 49.979 433.539 49.5616 432.745 48.989C432.021 48.4495 431.503 47.7543 431.251 46.9852C430.999 46.216 431.025 45.4049 431.325 44.6471C431.538 44.12 432.138 43.8803 432.018 43.2748C431.86 42.4803 430.409 41.9248 429.573 41.7689Z" fill="#2F2E41"/>
<path d="M357.277 90.3476H239.92V194.257H357.277V90.3476Z" fill="#F2F2F2"/>
<path d="M369.107 80.4151H251.75V184.324H369.107V80.4151Z" stroke="#3F3D56" stroke-width="2" stroke-miterlimit="10"/>
<path d="M263.107 86.9094V166.369H358.223" stroke="#3F3D56" stroke-width="2" stroke-miterlimit="10"/>
<path d="M289.607 138.482H268.312V165.987H289.607V138.482Z" fill="#666666"/>
<path d="M320.366 119.763H299.071V165.987H320.366V119.763Z" fill="#3F3D56"/>
<path d="M351.125 97.988H329.83V165.987H351.125V97.988Z" fill="#3CD154"/>
<path d="M268.015 172.602H261.688V177.71H268.015V172.602Z" fill="#3CD154"/>
<path d="M277.155 172.602H270.827V177.71H277.155V172.602Z" fill="#3F3D56"/>
<path d="M286.295 172.602H279.967V177.71H286.295V172.602Z" fill="#666666"/>
<path d="M357.277 174.82H332.67V175.626H357.277V174.82Z" fill="#3F3D56"/>
<path d="M357.277 177.236H332.67V178.042H357.277V177.236Z" fill="#3F3D56"/>
<path d="M357.277 179.652H332.67V180.458H357.277V179.652Z" fill="#3F3D56"/>
<path d="M342.753 67.8781C347.782 68.0546 351.519 71.7367 350.975 75.7771C350.482 79.4375 348.664 83.9923 342.937 85.7418C332.731 88.8593 333.282 71.2677 335.213 70.5997C336.5 70.1543 338.523 67.7296 342.753 67.8781Z" fill="#FFB9B9"/>
<path d="M473.131 73.8269L476.165 75.0166C476.165 75.0166 482.785 85.9278 483.061 87.4865C483.337 89.0453 487.75 94.8349 486.095 96.3936C484.44 97.9524 481.957 101.961 483.612 103.519C485.267 105.078 489.129 111.313 489.129 113.54C489.129 115.767 484.992 121.779 487.75 122.447C490.508 123.115 489.681 131.799 489.129 132.467C488.578 133.135 481.406 144.047 481.406 144.047C481.406 144.047 480.027 131.577 466.511 136.698C466.511 136.698 465.407 130.463 466.511 130.018C467.614 129.573 470.372 126.9 468.166 126.455C465.959 126.01 462.925 120.666 463.476 119.997C464.028 119.329 465.407 118.439 464.028 117.771C462.649 117.103 461.546 113.317 461.821 112.649C462.097 111.981 458.787 108.864 458.787 108.864L473.131 73.8269Z" fill="#666666"/>
</g>
<defs>
<clipPath id="clip0">
<rect width="530" height="317" fill="white"/>
</clipPath>
</defs>
</svg>
