<svg width="397" height="87" viewBox="0 0 397 87" fill="none" xmlns="http://www.w3.org/2000/svg">
<rect width="397" height="87" fill="#eee"/>
<rect width="3" height="55" transform="matrix(-1 0 0 1 99 16)" fill="#000000"/>
<path d="M38.639 71C35.5999 71 32.7962 70.3305 30.228 68.9916C27.7025 67.6011 25.6266 65.6442 24 63.1208L29.7785 54.7781C32.2184 58.7435 35.0006 60.7261 38.1253 60.7261C42.3629 60.7261 44.4817 57.7393 44.4817 51.7655V26.0422H28.687V16.0001H54.8189V51.0703C54.8189 57.7135 53.4492 62.7088 50.7097 66.0562C47.9703 69.3521 43.9467 71 38.639 71Z" fill="#3CD154"/>
<path d="M54.8191 25.4273V38.8431H76.1668V48.2704H54.8191L54.8189 16.0001L79 16V25.4273H54.8191Z" fill="#3CD154"/>
<path d="M112 57.63H116.275C117.385 57.63 118.365 57.855 119.215 58.305C120.065 58.745 120.725 59.365 121.195 60.165C121.665 60.955 121.9 61.86 121.9 62.88C121.9 63.9 121.665 64.81 121.195 65.61C120.725 66.4 120.065 67.02 119.215 67.47C118.365 67.91 117.385 68.13 116.275 68.13H112V57.63ZM116.215 67.17C117.135 67.17 117.94 66.99 118.63 66.63C119.32 66.26 119.855 65.755 120.235 65.115C120.615 64.465 120.805 63.72 120.805 62.88C120.805 62.04 120.615 61.3 120.235 60.66C119.855 60.01 119.32 59.505 118.63 59.145C117.94 58.775 117.135 58.59 116.215 58.59H113.11V67.17H116.215Z" fill="#000000"/>
<path d="M126.928 60.18C127.958 60.18 128.748 60.44 129.298 60.96C129.848 61.47 130.123 62.23 130.123 63.24V68.13H129.103V66.9C128.863 67.31 128.508 67.63 128.038 67.86C127.578 68.09 127.028 68.205 126.388 68.205C125.508 68.205 124.808 67.995 124.288 67.575C123.768 67.155 123.508 66.6 123.508 65.91C123.508 65.24 123.748 64.7 124.228 64.29C124.718 63.88 125.493 63.675 126.553 63.675H129.058V63.195C129.058 62.515 128.868 62 128.488 61.65C128.108 61.29 127.553 61.11 126.823 61.11C126.323 61.11 125.843 61.195 125.383 61.365C124.923 61.525 124.528 61.75 124.198 62.04L123.718 61.245C124.118 60.905 124.598 60.645 125.158 60.465C125.718 60.275 126.308 60.18 126.928 60.18ZM126.553 67.365C127.153 67.365 127.668 67.23 128.098 66.96C128.528 66.68 128.848 66.28 129.058 65.76V64.47H126.583C125.233 64.47 124.558 64.94 124.558 65.88C124.558 66.34 124.733 66.705 125.083 66.975C125.433 67.235 125.923 67.365 126.553 67.365Z" fill="#000000"/>
<path d="M137.17 67.65C136.97 67.83 136.72 67.97 136.42 68.07C136.13 68.16 135.825 68.205 135.505 68.205C134.765 68.205 134.195 68.005 133.795 67.605C133.395 67.205 133.195 66.64 133.195 65.91V61.14H131.785V60.24H133.195V58.515H134.26V60.24H136.66V61.14H134.26V65.85C134.26 66.32 134.375 66.68 134.605 66.93C134.845 67.17 135.185 67.29 135.625 67.29C135.845 67.29 136.055 67.255 136.255 67.185C136.465 67.115 136.645 67.015 136.795 66.885L137.17 67.65Z" fill="#000000"/>
<path d="M141.869 60.18C142.899 60.18 143.689 60.44 144.239 60.96C144.789 61.47 145.064 62.23 145.064 63.24V68.13H144.044V66.9C143.804 67.31 143.449 67.63 142.979 67.86C142.519 68.09 141.969 68.205 141.329 68.205C140.449 68.205 139.749 67.995 139.229 67.575C138.709 67.155 138.449 66.6 138.449 65.91C138.449 65.24 138.689 64.7 139.169 64.29C139.659 63.88 140.434 63.675 141.494 63.675H143.999V63.195C143.999 62.515 143.809 62 143.429 61.65C143.049 61.29 142.494 61.11 141.764 61.11C141.264 61.11 140.784 61.195 140.324 61.365C139.864 61.525 139.469 61.75 139.139 62.04L138.659 61.245C139.059 60.905 139.539 60.645 140.099 60.465C140.659 60.275 141.249 60.18 141.869 60.18ZM141.494 67.365C142.094 67.365 142.609 67.23 143.039 66.96C143.469 66.68 143.789 66.28 143.999 65.76V64.47H141.524C140.174 64.47 139.499 64.94 139.499 65.88C139.499 66.34 139.674 66.705 140.024 66.975C140.374 67.235 140.864 67.365 141.494 67.365Z" fill="#000000"/>
<path d="M159.187 60.24V67.17C159.187 68.51 158.857 69.5 158.197 70.14C157.547 70.79 156.562 71.115 155.242 71.115C154.512 71.115 153.817 71.005 153.157 70.785C152.507 70.575 151.977 70.28 151.567 69.9L152.107 69.09C152.487 69.43 152.947 69.695 153.487 69.885C154.037 70.075 154.612 70.17 155.212 70.17C156.212 70.17 156.947 69.935 157.417 69.465C157.887 69.005 158.122 68.285 158.122 67.305V66.3C157.792 66.8 157.357 67.18 156.817 67.44C156.287 67.7 155.697 67.83 155.047 67.83C154.307 67.83 153.632 67.67 153.022 67.35C152.422 67.02 151.947 66.565 151.597 65.985C151.257 65.395 151.087 64.73 151.087 63.99C151.087 63.25 151.257 62.59 151.597 62.01C151.947 61.43 152.422 60.98 153.022 60.66C153.622 60.34 154.297 60.18 155.047 60.18C155.717 60.18 156.322 60.315 156.862 60.585C157.402 60.855 157.837 61.245 158.167 61.755V60.24H159.187ZM155.152 66.885C155.722 66.885 156.237 66.765 156.697 66.525C157.157 66.275 157.512 65.93 157.762 65.49C158.022 65.05 158.152 64.55 158.152 63.99C158.152 63.43 158.022 62.935 157.762 62.505C157.512 62.065 157.157 61.725 156.697 61.485C156.247 61.235 155.732 61.11 155.152 61.11C154.582 61.11 154.067 61.23 153.607 61.47C153.157 61.71 152.802 62.05 152.542 62.49C152.292 62.93 152.167 63.43 152.167 63.99C152.167 64.55 152.292 65.05 152.542 65.49C152.802 65.93 153.157 66.275 153.607 66.525C154.067 66.765 154.582 66.885 155.152 66.885Z" fill="#000000"/>
<path d="M169.036 64.515H162.436C162.496 65.335 162.811 66 163.381 66.51C163.951 67.01 164.671 67.26 165.541 67.26C166.031 67.26 166.481 67.175 166.891 67.005C167.301 66.825 167.656 66.565 167.956 66.225L168.556 66.915C168.206 67.335 167.766 67.655 167.236 67.875C166.716 68.095 166.141 68.205 165.511 68.205C164.701 68.205 163.981 68.035 163.351 67.695C162.731 67.345 162.246 66.865 161.896 66.255C161.546 65.645 161.371 64.955 161.371 64.185C161.371 63.415 161.536 62.725 161.866 62.115C162.206 61.505 162.666 61.03 163.246 60.69C163.836 60.35 164.496 60.18 165.226 60.18C165.956 60.18 166.611 60.35 167.191 60.69C167.771 61.03 168.226 61.505 168.556 62.115C168.886 62.715 169.051 63.405 169.051 64.185L169.036 64.515ZM165.226 61.095C164.466 61.095 163.826 61.34 163.306 61.83C162.796 62.31 162.506 62.94 162.436 63.72H168.031C167.961 62.94 167.666 62.31 167.146 61.83C166.636 61.34 165.996 61.095 165.226 61.095Z" fill="#000000"/>
<path d="M175.238 60.18C176.228 60.18 177.013 60.47 177.593 61.05C178.183 61.62 178.478 62.455 178.478 63.555V68.13H177.413V63.66C177.413 62.84 177.208 62.215 176.798 61.785C176.388 61.355 175.803 61.14 175.043 61.14C174.193 61.14 173.518 61.395 173.018 61.905C172.528 62.405 172.283 63.1 172.283 63.99V68.13H171.218V60.24H172.238V61.695C172.528 61.215 172.928 60.845 173.438 60.585C173.958 60.315 174.558 60.18 175.238 60.18Z" fill="#000000"/>
<path d="M188.269 64.515H181.669C181.729 65.335 182.044 66 182.614 66.51C183.184 67.01 183.904 67.26 184.774 67.26C185.264 67.26 185.714 67.175 186.124 67.005C186.534 66.825 186.889 66.565 187.189 66.225L187.789 66.915C187.439 67.335 186.999 67.655 186.469 67.875C185.949 68.095 185.374 68.205 184.744 68.205C183.934 68.205 183.214 68.035 182.584 67.695C181.964 67.345 181.479 66.865 181.129 66.255C180.779 65.645 180.604 64.955 180.604 64.185C180.604 63.415 180.769 62.725 181.099 62.115C181.439 61.505 181.899 61.03 182.479 60.69C183.069 60.35 183.729 60.18 184.459 60.18C185.189 60.18 185.844 60.35 186.424 60.69C187.004 61.03 187.459 61.505 187.789 62.115C188.119 62.715 188.284 63.405 188.284 64.185L188.269 64.515ZM184.459 61.095C183.699 61.095 183.059 61.34 182.539 61.83C182.029 62.31 181.739 62.94 181.669 63.72H187.264C187.194 62.94 186.899 62.31 186.379 61.83C185.869 61.34 185.229 61.095 184.459 61.095Z" fill="#000000"/>
<path d="M191.472 61.785C191.722 61.255 192.092 60.855 192.582 60.585C193.082 60.315 193.697 60.18 194.427 60.18V61.215L194.172 61.2C193.342 61.2 192.692 61.455 192.222 61.965C191.752 62.475 191.517 63.19 191.517 64.11V68.13H190.452V60.24H191.472V61.785Z" fill="#000000"/>
<path d="M199.1 60.18C200.13 60.18 200.92 60.44 201.47 60.96C202.02 61.47 202.295 62.23 202.295 63.24V68.13H201.275V66.9C201.035 67.31 200.68 67.63 200.21 67.86C199.75 68.09 199.2 68.205 198.56 68.205C197.68 68.205 196.98 67.995 196.46 67.575C195.94 67.155 195.68 66.6 195.68 65.91C195.68 65.24 195.92 64.7 196.4 64.29C196.89 63.88 197.665 63.675 198.725 63.675H201.23V63.195C201.23 62.515 201.04 62 200.66 61.65C200.28 61.29 199.725 61.11 198.995 61.11C198.495 61.11 198.015 61.195 197.555 61.365C197.095 61.525 196.7 61.75 196.37 62.04L195.89 61.245C196.29 60.905 196.77 60.645 197.33 60.465C197.89 60.275 198.48 60.18 199.1 60.18ZM198.725 67.365C199.325 67.365 199.84 67.23 200.27 66.96C200.7 66.68 201.02 66.28 201.23 65.76V64.47H198.755C197.405 64.47 196.73 64.94 196.73 65.88C196.73 66.34 196.905 66.705 197.255 66.975C197.605 67.235 198.095 67.365 198.725 67.365Z" fill="#000000"/>
<path d="M209.343 67.65C209.143 67.83 208.893 67.97 208.593 68.07C208.303 68.16 207.998 68.205 207.678 68.205C206.938 68.205 206.368 68.005 205.968 67.605C205.568 67.205 205.368 66.64 205.368 65.91V61.14H203.958V60.24H205.368V58.515H206.433V60.24H208.833V61.14H206.433V65.85C206.433 66.32 206.548 66.68 206.778 66.93C207.018 67.17 207.358 67.29 207.798 67.29C208.018 67.29 208.228 67.255 208.428 67.185C208.638 67.115 208.818 67.015 208.968 66.885L209.343 67.65Z" fill="#000000"/>
<path d="M211.282 60.24H212.347V68.13H211.282V60.24ZM211.822 58.515C211.602 58.515 211.417 58.44 211.267 58.29C211.117 58.14 211.042 57.96 211.042 57.75C211.042 57.55 211.117 57.375 211.267 57.225C211.417 57.075 211.602 57 211.822 57C212.042 57 212.227 57.075 212.377 57.225C212.527 57.365 212.602 57.535 212.602 57.735C212.602 57.955 212.527 58.14 212.377 58.29C212.227 58.44 212.042 58.515 211.822 58.515Z" fill="#000000"/>
<path d="M218.535 68.205C217.775 68.205 217.09 68.035 216.48 67.695C215.87 67.345 215.39 66.865 215.04 66.255C214.69 65.645 214.515 64.955 214.515 64.185C214.515 63.415 214.69 62.725 215.04 62.115C215.39 61.505 215.87 61.03 216.48 60.69C217.09 60.35 217.775 60.18 218.535 60.18C219.295 60.18 219.98 60.35 220.59 60.69C221.2 61.03 221.675 61.505 222.015 62.115C222.365 62.725 222.54 63.415 222.54 64.185C222.54 64.955 222.365 65.645 222.015 66.255C221.675 66.865 221.2 67.345 220.59 67.695C219.98 68.035 219.295 68.205 218.535 68.205ZM218.535 67.26C219.095 67.26 219.595 67.135 220.035 66.885C220.485 66.625 220.835 66.26 221.085 65.79C221.335 65.32 221.46 64.785 221.46 64.185C221.46 63.585 221.335 63.05 221.085 62.58C220.835 62.11 220.485 61.75 220.035 61.5C219.595 61.24 219.095 61.11 218.535 61.11C217.975 61.11 217.47 61.24 217.02 61.5C216.58 61.75 216.23 62.11 215.97 62.58C215.72 63.05 215.595 63.585 215.595 64.185C215.595 64.785 215.72 65.32 215.97 65.79C216.23 66.26 216.58 66.625 217.02 66.885C217.47 67.135 217.975 67.26 218.535 67.26Z" fill="#000000"/>
<path d="M228.734 60.18C229.724 60.18 230.509 60.47 231.089 61.05C231.679 61.62 231.974 62.455 231.974 63.555V68.13H230.909V63.66C230.909 62.84 230.704 62.215 230.294 61.785C229.884 61.355 229.299 61.14 228.539 61.14C227.689 61.14 227.014 61.395 226.514 61.905C226.024 62.405 225.779 63.1 225.779 63.99V68.13H224.714V60.24H225.734V61.695C226.024 61.215 226.424 60.845 226.934 60.585C227.454 60.315 228.054 60.18 228.734 60.18Z" fill="#000000"/>
<path d="M248.632 60.18C249.622 60.18 250.397 60.465 250.957 61.035C251.527 61.605 251.812 62.445 251.812 63.555V68.13H250.747V63.66C250.747 62.84 250.547 62.215 250.147 61.785C249.757 61.355 249.202 61.14 248.482 61.14C247.662 61.14 247.017 61.395 246.547 61.905C246.077 62.405 245.842 63.1 245.842 63.99V68.13H244.777V63.66C244.777 62.84 244.577 62.215 244.177 61.785C243.787 61.355 243.227 61.14 242.497 61.14C241.687 61.14 241.042 61.395 240.562 61.905C240.092 62.405 239.857 63.1 239.857 63.99V68.13H238.792V60.24H239.812V61.68C240.092 61.2 240.482 60.83 240.982 60.57C241.482 60.31 242.057 60.18 242.707 60.18C243.367 60.18 243.937 60.32 244.417 60.6C244.907 60.88 245.272 61.295 245.512 61.845C245.802 61.325 246.217 60.92 246.757 60.63C247.307 60.33 247.932 60.18 248.632 60.18Z" fill="#000000"/>
<path d="M257.46 60.18C258.49 60.18 259.28 60.44 259.83 60.96C260.38 61.47 260.655 62.23 260.655 63.24V68.13H259.635V66.9C259.395 67.31 259.04 67.63 258.57 67.86C258.11 68.09 257.56 68.205 256.92 68.205C256.04 68.205 255.34 67.995 254.82 67.575C254.3 67.155 254.04 66.6 254.04 65.91C254.04 65.24 254.28 64.7 254.76 64.29C255.25 63.88 256.025 63.675 257.085 63.675H259.59V63.195C259.59 62.515 259.4 62 259.02 61.65C258.64 61.29 258.085 61.11 257.355 61.11C256.855 61.11 256.375 61.195 255.915 61.365C255.455 61.525 255.06 61.75 254.73 62.04L254.25 61.245C254.65 60.905 255.13 60.645 255.69 60.465C256.25 60.275 256.84 60.18 257.46 60.18ZM257.085 67.365C257.685 67.365 258.2 67.23 258.63 66.96C259.06 66.68 259.38 66.28 259.59 65.76V64.47H257.115C255.765 64.47 255.09 64.94 255.09 65.88C255.09 66.34 255.265 66.705 255.615 66.975C255.965 67.235 256.455 67.365 257.085 67.365Z" fill="#000000"/>
<path d="M270.777 57V68.13H269.757V66.57C269.437 67.1 269.012 67.505 268.482 67.785C267.962 68.065 267.372 68.205 266.712 68.205C265.972 68.205 265.302 68.035 264.702 67.695C264.102 67.355 263.632 66.88 263.292 66.27C262.952 65.66 262.782 64.965 262.782 64.185C262.782 63.405 262.952 62.71 263.292 62.1C263.632 61.49 264.102 61.02 264.702 60.69C265.302 60.35 265.972 60.18 266.712 60.18C267.352 60.18 267.927 60.315 268.437 60.585C268.957 60.845 269.382 61.23 269.712 61.74V57H270.777ZM266.802 67.26C267.352 67.26 267.847 67.135 268.287 66.885C268.737 66.625 269.087 66.26 269.337 65.79C269.597 65.32 269.727 64.785 269.727 64.185C269.727 63.585 269.597 63.05 269.337 62.58C269.087 62.11 268.737 61.75 268.287 61.5C267.847 61.24 267.352 61.11 266.802 61.11C266.242 61.11 265.737 61.24 265.287 61.5C264.847 61.75 264.497 62.11 264.237 62.58C263.987 63.05 263.862 63.585 263.862 64.185C263.862 64.785 263.987 65.32 264.237 65.79C264.497 66.26 264.847 66.625 265.287 66.885C265.737 67.135 266.242 67.26 266.802 67.26Z" fill="#000000"/>
<path d="M280.613 64.515H274.013C274.073 65.335 274.388 66 274.958 66.51C275.528 67.01 276.248 67.26 277.118 67.26C277.608 67.26 278.058 67.175 278.468 67.005C278.878 66.825 279.233 66.565 279.533 66.225L280.133 66.915C279.783 67.335 279.343 67.655 278.813 67.875C278.293 68.095 277.718 68.205 277.088 68.205C276.278 68.205 275.558 68.035 274.928 67.695C274.308 67.345 273.823 66.865 273.473 66.255C273.123 65.645 272.948 64.955 272.948 64.185C272.948 63.415 273.113 62.725 273.443 62.115C273.783 61.505 274.243 61.03 274.823 60.69C275.413 60.35 276.073 60.18 276.803 60.18C277.533 60.18 278.188 60.35 278.768 60.69C279.348 61.03 279.803 61.505 280.133 62.115C280.463 62.715 280.628 63.405 280.628 64.185L280.613 64.515ZM276.803 61.095C276.043 61.095 275.403 61.34 274.883 61.83C274.373 62.31 274.083 62.94 274.013 63.72H279.608C279.538 62.94 279.243 62.31 278.723 61.83C278.213 61.34 277.573 61.095 276.803 61.095Z" fill="#000000"/>
<path d="M293.591 64.515H286.991C287.051 65.335 287.366 66 287.936 66.51C288.506 67.01 289.226 67.26 290.096 67.26C290.586 67.26 291.036 67.175 291.446 67.005C291.856 66.825 292.211 66.565 292.511 66.225L293.111 66.915C292.761 67.335 292.321 67.655 291.791 67.875C291.271 68.095 290.696 68.205 290.066 68.205C289.256 68.205 288.536 68.035 287.906 67.695C287.286 67.345 286.801 66.865 286.451 66.255C286.101 65.645 285.926 64.955 285.926 64.185C285.926 63.415 286.091 62.725 286.421 62.115C286.761 61.505 287.221 61.03 287.801 60.69C288.391 60.35 289.051 60.18 289.781 60.18C290.511 60.18 291.166 60.35 291.746 60.69C292.326 61.03 292.781 61.505 293.111 62.115C293.441 62.715 293.606 63.405 293.606 64.185L293.591 64.515ZM289.781 61.095C289.021 61.095 288.381 61.34 287.861 61.83C287.351 62.31 287.061 62.94 286.991 63.72H292.586C292.516 62.94 292.221 62.31 291.701 61.83C291.191 61.34 290.551 61.095 289.781 61.095Z" fill="#000000"/>
<path d="M298.314 60.18C299.344 60.18 300.134 60.44 300.684 60.96C301.234 61.47 301.509 62.23 301.509 63.24V68.13H300.489V66.9C300.249 67.31 299.894 67.63 299.424 67.86C298.964 68.09 298.414 68.205 297.774 68.205C296.894 68.205 296.194 67.995 295.674 67.575C295.154 67.155 294.894 66.6 294.894 65.91C294.894 65.24 295.134 64.7 295.614 64.29C296.104 63.88 296.879 63.675 297.939 63.675H300.444V63.195C300.444 62.515 300.254 62 299.874 61.65C299.494 61.29 298.939 61.11 298.209 61.11C297.709 61.11 297.229 61.195 296.769 61.365C296.309 61.525 295.914 61.75 295.584 62.04L295.104 61.245C295.504 60.905 295.984 60.645 296.544 60.465C297.104 60.275 297.694 60.18 298.314 60.18ZM297.939 67.365C298.539 67.365 299.054 67.23 299.484 66.96C299.914 66.68 300.234 66.28 300.444 65.76V64.47H297.969C296.619 64.47 295.944 64.94 295.944 65.88C295.944 66.34 296.119 66.705 296.469 66.975C296.819 67.235 297.309 67.365 297.939 67.365Z" fill="#000000"/>
<path d="M306.517 68.205C305.877 68.205 305.262 68.115 304.672 67.935C304.092 67.745 303.637 67.51 303.307 67.23L303.787 66.39C304.117 66.65 304.532 66.865 305.032 67.035C305.532 67.195 306.052 67.275 306.592 67.275C307.312 67.275 307.842 67.165 308.182 66.945C308.532 66.715 308.707 66.395 308.707 65.985C308.707 65.695 308.612 65.47 308.422 65.31C308.232 65.14 307.992 65.015 307.702 64.935C307.412 64.845 307.027 64.76 306.547 64.68C305.907 64.56 305.392 64.44 305.002 64.32C304.612 64.19 304.277 63.975 303.997 63.675C303.727 63.375 303.592 62.96 303.592 62.43C303.592 61.77 303.867 61.23 304.417 60.81C304.967 60.39 305.732 60.18 306.712 60.18C307.222 60.18 307.732 60.25 308.242 60.39C308.752 60.52 309.172 60.695 309.502 60.915L309.037 61.77C308.387 61.32 307.612 61.095 306.712 61.095C306.032 61.095 305.517 61.215 305.167 61.455C304.827 61.695 304.657 62.01 304.657 62.4C304.657 62.7 304.752 62.94 304.942 63.12C305.142 63.3 305.387 63.435 305.677 63.525C305.967 63.605 306.367 63.69 306.877 63.78C307.507 63.9 308.012 64.02 308.392 64.14C308.772 64.26 309.097 64.465 309.367 64.755C309.637 65.045 309.772 65.445 309.772 65.955C309.772 66.645 309.482 67.195 308.902 67.605C308.332 68.005 307.537 68.205 306.517 68.205Z" fill="#000000"/>
<path d="M318.224 60.24L314.279 69.075C313.959 69.815 313.589 70.34 313.169 70.65C312.749 70.96 312.244 71.115 311.654 71.115C311.274 71.115 310.919 71.055 310.589 70.935C310.259 70.815 309.974 70.635 309.734 70.395L310.229 69.6C310.629 70 311.109 70.2 311.669 70.2C312.029 70.2 312.334 70.1 312.584 69.9C312.844 69.7 313.084 69.36 313.304 68.88L313.649 68.115L310.124 60.24H311.234L314.204 66.945L317.174 60.24H318.224Z" fill="#000000"/>
<path d="M319.317 68.205C319.097 68.205 318.907 68.125 318.747 67.965C318.597 67.805 318.522 67.61 318.522 67.38C318.522 67.15 318.597 66.96 318.747 66.81C318.907 66.65 319.097 66.57 319.317 66.57C319.537 66.57 319.727 66.65 319.887 66.81C320.047 66.96 320.127 67.15 320.127 67.38C320.127 67.61 320.047 67.805 319.887 67.965C319.727 68.125 319.537 68.205 319.317 68.205Z" fill="#000000"/>
<path d="M119.98 40.92C118.323 40.92 116.795 40.6167 115.395 40.01C114.018 39.38 112.887 38.4933 112 37.35L115.15 33.57C116.48 35.3667 117.997 36.265 119.7 36.265C122.01 36.265 123.165 34.9117 123.165 32.205V20.55H114.555V16H128.8V31.89C128.8 34.9 128.053 37.1633 126.56 38.68C125.067 40.1733 122.873 40.92 119.98 40.92Z" fill="#000000"/>
<path d="M218.67 20.55V27.025H230.01V31.575H218.67V40.5H213V16H231.515V20.55H218.67Z" fill="#000000"/>
<path d="M141.975 41.34C140.038 41.34 138.16 41.0833 136.34 40.57C134.543 40.0333 133.097 39.345 132 38.505L133.925 34.235C134.975 35.005 136.223 35.6233 137.67 36.09C139.117 36.5567 140.563 36.79 142.01 36.79C143.62 36.79 144.81 36.5567 145.58 36.09C146.35 35.6 146.735 34.9583 146.735 34.165C146.735 33.5817 146.502 33.1033 146.035 32.73C145.592 32.3333 145.008 32.0183 144.285 31.785C143.585 31.5517 142.628 31.295 141.415 31.015C139.548 30.5717 138.02 30.1283 136.83 29.685C135.64 29.2417 134.613 28.53 133.75 27.55C132.91 26.57 132.49 25.2633 132.49 23.63C132.49 22.2067 132.875 20.9233 133.645 19.78C134.415 18.6133 135.57 17.6917 137.11 17.015C138.673 16.3383 140.575 16 142.815 16C144.378 16 145.907 16.1867 147.4 16.56C148.893 16.9333 150.2 17.47 151.32 18.17L149.57 22.475C147.307 21.1917 145.043 20.55 142.78 20.55C141.193 20.55 140.015 20.8067 139.245 21.32C138.498 21.8333 138.125 22.51 138.125 23.35C138.125 24.19 138.557 24.82 139.42 25.24C140.307 25.6367 141.648 26.0333 143.445 26.43C145.312 26.8733 146.84 27.3167 148.03 27.76C149.22 28.2033 150.235 28.9033 151.075 29.86C151.938 30.8167 152.37 32.1117 152.37 33.745C152.37 35.145 151.973 36.4283 151.18 37.595C150.41 38.7383 149.243 39.6483 147.68 40.325C146.117 41.0017 144.215 41.34 141.975 41.34Z" fill="#000000"/>
<path d="M168.109 41.34C165.566 41.34 163.268 40.7917 161.214 39.695C159.184 38.5983 157.586 37.0933 156.419 35.18C155.276 33.2433 154.704 31.0733 154.704 28.67C154.704 26.2667 155.276 24.1083 156.419 22.195C157.586 20.2583 159.184 18.7417 161.214 17.645C163.268 16.5483 165.566 16 168.109 16C170.653 16 172.939 16.5483 174.969 17.645C176.999 18.7417 178.598 20.2583 179.764 22.195C180.931 24.1083 181.514 26.2667 181.514 28.67C181.514 31.0733 180.931 33.2433 179.764 35.18C178.598 37.0933 176.999 38.5983 174.969 39.695C172.939 40.7917 170.653 41.34 168.109 41.34ZM168.109 36.51C169.556 36.51 170.863 36.1833 172.029 35.53C173.196 34.8533 174.106 33.92 174.759 32.73C175.436 31.54 175.774 30.1867 175.774 28.67C175.774 27.1533 175.436 25.8 174.759 24.61C174.106 23.42 173.196 22.4983 172.029 21.845C170.863 21.1683 169.556 20.83 168.109 20.83C166.663 20.83 165.356 21.1683 164.189 21.845C163.023 22.4983 162.101 23.42 161.424 24.61C160.771 25.8 160.444 27.1533 160.444 28.67C160.444 30.1867 160.771 31.54 161.424 32.73C162.101 33.92 163.023 34.8533 164.189 35.53C165.356 36.1833 166.663 36.51 168.109 36.51Z" fill="#000000"/>
<path d="M208.246 16.42V40.92H203.591L191.376 26.045V40.92H185.776V16.42H190.466L202.646 31.295V16.42H208.246Z" fill="#000000"/>
<path d="M249.532 35.4061H238.053L235.863 40.5856H230L241.02 16.4144H246.671L257.726 40.5856H251.722L249.532 35.4061ZM247.731 31.1588L243.81 21.9047L239.89 31.1588H247.731Z" fill="#000000"/>
<path d="M271.778 41C269.259 41 266.975 40.4705 264.926 39.4116C262.901 38.3296 261.3 36.8448 260.123 34.9572C258.969 33.0465 258.392 30.8941 258.392 28.5C258.392 26.1059 258.969 23.965 260.123 22.0773C261.3 20.1667 262.901 18.6819 264.926 17.6229C266.975 16.541 269.271 16 271.814 16C273.956 16 275.887 16.3683 277.606 17.105C279.349 17.8416 280.809 18.9006 281.986 20.2818L278.313 23.5967C276.641 21.709 274.569 20.7652 272.096 20.7652C270.566 20.7652 269.2 21.099 267.999 21.7666C266.798 22.4111 265.856 23.3204 265.174 24.4945C264.514 25.6685 264.185 27.0037 264.185 28.5C264.185 29.9963 264.514 31.3315 265.174 32.5055C265.856 33.6796 266.798 34.6004 267.999 35.268C269.2 35.9125 270.566 36.2348 272.096 36.2348C274.569 36.2348 276.641 35.2795 278.313 33.3688L281.986 36.6837C280.809 38.0879 279.349 39.1584 277.606 39.895C275.864 40.6317 273.921 41 271.778 41Z" fill="#000000"/>
<path d="M290.73 20.9724H282.818V16.4144H304.363V20.9724H296.452V40.5856H290.73V20.9724Z" fill="#000000"/>
<path d="M319.07 41C316.504 41 314.184 40.459 312.112 39.3771C310.064 38.2951 308.451 36.8103 307.273 34.9227C306.12 33.012 305.543 30.8711 305.543 28.5C305.543 26.1289 306.12 23.9995 307.273 22.1119C308.451 20.2012 310.064 18.7049 312.112 17.6229C314.184 16.541 316.504 16 319.07 16C321.637 16 323.944 16.541 325.993 17.6229C328.042 18.7049 329.654 20.2012 330.832 22.1119C332.009 23.9995 332.598 26.1289 332.598 28.5C332.598 30.8711 332.009 33.012 330.832 34.9227C329.654 36.8103 328.042 38.2951 325.993 39.3771C323.944 40.459 321.637 41 319.07 41ZM319.07 36.2348C320.53 36.2348 321.849 35.9125 323.026 35.268C324.203 34.6004 325.122 33.6796 325.781 32.5055C326.464 31.3315 326.805 29.9963 326.805 28.5C326.805 27.0037 326.464 25.6685 325.781 24.4945C325.122 23.3204 324.203 22.4111 323.026 21.7666C321.849 21.099 320.53 20.7652 319.07 20.7652C317.61 20.7652 316.292 21.099 315.114 21.7666C313.937 22.4111 313.007 23.3204 312.324 24.4945C311.665 25.6685 311.335 27.0037 311.335 28.5C311.335 29.9963 311.665 31.3315 312.324 32.5055C313.007 33.6796 313.937 34.6004 315.114 35.268C316.292 35.9125 317.61 36.2348 319.07 36.2348Z" fill="#000000"/>
<path d="M352.651 40.5856L347.882 33.8522H342.62V40.5856H336.898V16.4144H347.6C349.79 16.4144 351.685 16.7712 353.286 17.4848C354.911 18.1984 356.159 19.2113 357.03 20.5235C357.901 21.8356 358.337 23.3895 358.337 25.1851C358.337 26.9807 357.89 28.5345 356.995 29.8467C356.124 31.1358 354.876 32.1257 353.251 32.8163L358.796 40.5856H352.651ZM352.545 25.1851C352.545 23.8269 352.097 22.791 351.202 22.0773C350.308 21.3407 349.001 20.9724 347.282 20.9724H342.62V29.3978H347.282C349.001 29.3978 350.308 29.0295 351.202 28.2928C352.097 27.5562 352.545 26.5203 352.545 25.1851Z" fill="#000000"/>
<path d="M374.393 32.0221V40.5856H368.671V31.953L359.1 16.4144H365.175L371.779 27.1533L378.384 16.4144H384L374.393 32.0221Z" fill="#000000"/>
</svg>
