<svg width="1028" height="798" viewBox="0 0 1028 798" fill="none" xmlns="http://www.w3.org/2000/svg">
<path d="M166.367 0.218262H171.566V93.7815H166.367V0.218262Z" fill="black"/>
<path d="M66.9611 93.7818C61.6943 93.7818 56.8355 92.6429 52.3849 90.3652C48.0082 87.9998 44.4107 84.6708 41.5918 80.3781L51.6059 66.1859C55.8342 72.9317 60.6558 76.3044 66.0708 76.3044C73.4146 76.3044 77.0864 71.2234 77.0864 61.061V17.3019H49.7143V0.21875H95.0007V59.8784C95.0007 71.1795 92.627 79.6772 87.8795 85.3717C83.1321 90.9785 76.1593 93.7818 66.9611 93.7818Z" fill="#3CD154"/>
<path d="M95.0008 16.2555V39.0778H131.996V55.115H95.0008L95.0005 0.21843L136.906 0.218262V16.2555H95.0008Z" fill="#3CD154"/>
<path d="M194.095 71.0374H201.504C203.427 71.0374 205.126 71.4201 206.599 72.1856C208.072 72.9341 209.216 73.9888 210.03 75.3498C210.845 76.6937 211.252 78.2332 211.252 79.9684C211.252 81.7036 210.845 83.2516 210.03 84.6125C209.216 85.9564 208.072 87.0111 206.599 87.7767C205.126 88.5252 203.427 88.8994 201.504 88.8994H194.095V71.0374ZM201.4 87.2663C202.994 87.2663 204.389 86.9601 205.585 86.3477C206.781 85.7183 207.708 84.8592 208.366 83.7704C209.025 82.6647 209.354 81.3974 209.354 79.9684C209.354 78.5394 209.025 77.2806 208.366 76.1918C207.708 75.0861 206.781 74.227 205.585 73.6146C204.389 72.9852 202.994 72.6705 201.4 72.6705H196.019V87.2663H201.4Z" fill="black"/>
<path d="M219.965 75.3752C221.75 75.3752 223.119 75.8175 224.072 76.7021C225.025 77.5697 225.502 78.8626 225.502 80.5808V88.8994H223.734V86.807C223.318 87.5044 222.703 88.0488 221.889 88.4401C221.092 88.8313 220.138 89.027 219.029 89.027C217.504 89.027 216.291 88.6697 215.39 87.9552C214.489 87.2408 214.038 86.2966 214.038 85.1228C214.038 83.9831 214.454 83.0644 215.286 82.367C216.135 81.6695 217.478 81.3208 219.315 81.3208H223.656V80.5042C223.656 79.3474 223.327 78.4713 222.669 77.8759C222.01 77.2635 221.048 76.9573 219.783 76.9573C218.917 76.9573 218.085 77.1019 217.288 77.3911C216.491 77.6633 215.806 78.046 215.234 78.5394L214.402 77.187C215.095 76.6086 215.927 76.1663 216.898 75.8601C217.868 75.5369 218.891 75.3752 219.965 75.3752ZM219.315 87.598C220.355 87.598 221.248 87.3683 221.993 86.909C222.738 86.4327 223.292 85.7523 223.656 84.8677V82.6732H219.367C217.028 82.6732 215.858 83.4727 215.858 85.0718C215.858 85.8543 216.161 86.4752 216.768 86.9346C217.374 87.3768 218.224 87.598 219.315 87.598Z" fill="black"/>
<path d="M237.714 88.0827C237.368 88.3889 236.935 88.6271 236.415 88.7972C235.912 88.9503 235.384 89.0269 234.829 89.0269C233.547 89.0269 232.559 88.6866 231.866 88.0062C231.172 87.3257 230.826 86.3646 230.826 85.1227V77.0082H228.382V75.4772H230.826V72.5427H232.671V75.4772H236.831V77.0082H232.671V85.0207C232.671 85.8202 232.871 86.4326 233.269 86.8579C233.685 87.2662 234.274 87.4703 235.037 87.4703C235.418 87.4703 235.782 87.4108 236.129 87.2917C236.493 87.1726 236.805 87.0025 237.065 86.7814L237.714 88.0827Z" fill="black"/>
<path d="M245.858 75.3752C247.643 75.3752 249.012 75.8175 249.965 76.7021C250.918 77.5697 251.395 78.8626 251.395 80.5808V88.8994H249.627V86.807C249.211 87.5044 248.596 88.0488 247.782 88.4401C246.984 88.8313 246.031 89.027 244.922 89.027C243.397 89.027 242.184 88.6697 241.283 87.9552C240.382 87.2408 239.931 86.2966 239.931 85.1228C239.931 83.9831 240.347 83.0644 241.179 82.367C242.028 81.6695 243.371 81.3208 245.208 81.3208H249.549V80.5042C249.549 79.3474 249.22 78.4713 248.561 77.8759C247.903 77.2635 246.941 76.9573 245.676 76.9573C244.81 76.9573 243.978 77.1019 243.181 77.3911C242.383 77.6633 241.699 78.046 241.127 78.5394L240.295 77.187C240.988 76.6086 241.82 76.1663 242.791 75.8601C243.761 75.5369 244.784 75.3752 245.858 75.3752ZM245.208 87.598C246.248 87.598 247.14 87.3683 247.886 86.909C248.631 86.4327 249.185 85.7523 249.549 84.8677V82.6732H245.26C242.921 82.6732 241.751 83.4727 241.751 85.0718C241.751 85.8543 242.054 86.4752 242.661 86.9346C243.267 87.3768 244.116 87.598 245.208 87.598Z" fill="black"/>
<path d="M275.87 75.4773V87.2663C275.87 89.5458 275.298 91.2299 274.154 92.3187C273.028 93.4244 271.321 93.9773 269.033 93.9773C267.768 93.9773 266.564 93.7902 265.42 93.4159C264.293 93.0587 263.375 92.5568 262.664 91.9104L263.6 90.5325C264.259 91.1108 265.056 91.5617 265.992 91.8849C266.945 92.2081 267.941 92.3697 268.981 92.3697C270.714 92.3697 271.988 91.9699 272.802 91.1704C273.617 90.3879 274.024 89.163 274.024 87.4959V85.7863C273.452 86.6368 272.698 87.2833 271.763 87.7256C270.844 88.1679 269.822 88.389 268.695 88.389C267.413 88.389 266.243 88.1168 265.186 87.5725C264.146 87.0111 263.323 86.2371 262.716 85.2504C262.127 84.2467 261.833 83.1155 261.833 81.8566C261.833 80.5978 262.127 79.475 262.716 78.4883C263.323 77.5017 264.146 76.7362 265.186 76.1918C266.226 75.6474 267.395 75.3752 268.695 75.3752C269.856 75.3752 270.905 75.6049 271.841 76.0642C272.776 76.5235 273.53 77.187 274.102 78.0546V75.4773H275.87ZM268.877 86.7814C269.865 86.7814 270.757 86.5773 271.555 86.169C272.352 85.7437 272.967 85.1568 273.4 84.4083C273.851 83.6598 274.076 82.8093 274.076 81.8566C274.076 80.904 273.851 80.0619 273.4 79.3304C272.967 78.5819 272.352 78.0035 271.555 77.5952C270.775 77.17 269.882 76.9573 268.877 76.9573C267.889 76.9573 266.997 77.1614 266.2 77.5697C265.42 77.978 264.805 78.5564 264.354 79.3049C263.921 80.0534 263.704 80.904 263.704 81.8566C263.704 82.8093 263.921 83.6598 264.354 84.4083C264.805 85.1568 265.42 85.7437 266.2 86.169C266.997 86.5773 267.889 86.7814 268.877 86.7814Z" fill="black"/>
<path d="M292.938 82.7497H281.5C281.604 84.1447 282.15 85.2759 283.138 86.1435C284.126 86.9941 285.374 87.4194 286.881 87.4194C287.731 87.4194 288.51 87.2748 289.221 86.9856C289.931 86.6794 290.547 86.2371 291.067 85.6587L292.106 86.8325C291.5 87.547 290.737 88.0913 289.819 88.4656C288.918 88.8398 287.921 89.027 286.829 89.027C285.426 89.027 284.178 88.7378 283.086 88.1594C282.012 87.564 281.171 86.7474 280.565 85.7097C279.958 84.672 279.655 83.4982 279.655 82.1883C279.655 80.8785 279.941 79.7047 280.513 78.667C281.102 77.6293 281.899 76.8212 282.904 76.2428C283.927 75.6644 285.07 75.3752 286.335 75.3752C287.601 75.3752 288.736 75.6644 289.741 76.2428C290.746 76.8212 291.534 77.6293 292.106 78.667C292.678 79.6877 292.964 80.8614 292.964 82.1883L292.938 82.7497ZM286.335 76.9318C285.018 76.9318 283.909 77.3486 283.008 78.1821C282.124 78.9987 281.622 80.0704 281.5 81.3973H291.196C291.075 80.0704 290.564 78.9987 289.663 78.1821C288.779 77.3486 287.67 76.9318 286.335 76.9318Z" fill="black"/>
<path d="M303.686 75.3752C305.402 75.3752 306.762 75.8686 307.767 76.8552C308.789 77.8249 309.301 79.2454 309.301 81.1166V88.8994H307.455V81.2952C307.455 79.9003 307.1 78.8371 306.389 78.1056C305.679 77.3741 304.665 77.0083 303.348 77.0083C301.875 77.0083 300.705 77.4421 299.839 78.3097C298.989 79.1603 298.565 80.3426 298.565 81.8566V88.8994H296.719V75.4773H298.487V77.9525C298.989 77.1359 299.683 76.5065 300.566 76.0642C301.468 75.6049 302.507 75.3752 303.686 75.3752Z" fill="black"/>
<path d="M326.269 82.7497H314.831C314.935 84.1447 315.481 85.2759 316.469 86.1435C317.456 86.9941 318.704 87.4194 320.212 87.4194C321.061 87.4194 321.841 87.2748 322.551 86.9856C323.262 86.6794 323.877 86.2371 324.397 85.6587L325.437 86.8325C324.83 87.547 324.068 88.0913 323.149 88.4656C322.248 88.8398 321.252 89.027 320.16 89.027C318.756 89.027 317.508 88.7378 316.417 88.1594C315.342 87.564 314.502 86.7474 313.895 85.7097C313.289 84.672 312.985 83.4982 312.985 82.1883C312.985 80.8785 313.271 79.7047 313.843 78.667C314.432 77.6293 315.23 76.8212 316.235 76.2428C317.257 75.6644 318.401 75.3752 319.666 75.3752C320.931 75.3752 322.066 75.6644 323.071 76.2428C324.077 76.8212 324.865 77.6293 325.437 78.667C326.009 79.6877 326.295 80.8614 326.295 82.1883L326.269 82.7497ZM319.666 76.9318C318.349 76.9318 317.24 77.3486 316.339 78.1821C315.455 78.9987 314.952 80.0704 314.831 81.3973H324.527C324.406 80.0704 323.895 78.9987 322.993 78.1821C322.11 77.3486 321 76.9318 319.666 76.9318Z" fill="black"/>
<path d="M331.82 78.1056C332.253 77.204 332.894 76.5235 333.743 76.0642C334.61 75.6049 335.676 75.3752 336.941 75.3752V77.1359L336.499 77.1104C335.06 77.1104 333.934 77.5442 333.119 78.4118C332.305 79.2794 331.898 80.4957 331.898 82.0608V88.8994H330.052V75.4773H331.82V78.1056Z" fill="black"/>
<path d="M345.039 75.3752C346.824 75.3752 348.193 75.8175 349.146 76.7021C350.099 77.5697 350.576 78.8626 350.576 80.5808V88.8994H348.808V86.807C348.392 87.5044 347.777 88.0488 346.962 88.4401C346.165 88.8313 345.212 89.027 344.103 89.027C342.578 89.027 341.365 88.6697 340.464 87.9552C339.562 87.2408 339.112 86.2966 339.112 85.1228C339.112 83.9831 339.528 83.0644 340.36 82.367C341.209 81.6695 342.552 81.3208 344.389 81.3208H348.73V80.5042C348.73 79.3474 348.401 78.4713 347.742 77.8759C347.084 77.2635 346.122 76.9573 344.857 76.9573C343.99 76.9573 343.158 77.1019 342.361 77.3911C341.564 77.6633 340.879 78.046 340.308 78.5394L339.476 77.187C340.169 76.6086 341.001 76.1663 341.971 75.8601C342.942 75.5369 343.964 75.3752 345.039 75.3752ZM344.389 87.598C345.429 87.598 346.321 87.3683 347.066 86.909C347.811 86.4327 348.366 85.7523 348.73 84.8677V82.6732H344.441C342.101 82.6732 340.931 83.4727 340.931 85.0718C340.931 85.8543 341.235 86.4752 341.841 86.9346C342.448 87.3768 343.297 87.598 344.389 87.598Z" fill="black"/>
<path d="M362.79 88.0827C362.443 88.3889 362.01 88.6271 361.49 88.7972C360.987 88.9503 360.459 89.0269 359.904 89.0269C358.622 89.0269 357.634 88.6866 356.941 88.0062C356.248 87.3257 355.901 86.3646 355.901 85.1227V77.0082H353.458V75.4772H355.901V72.5427H357.747V75.4772H361.906V77.0082H357.747V85.0207C357.747 85.8202 357.946 86.4326 358.345 86.8579C358.76 87.2662 359.35 87.4703 360.112 87.4703C360.493 87.4703 360.857 87.4108 361.204 87.2917C361.568 87.1726 361.88 87.0025 362.14 86.7814L362.79 88.0827Z" fill="black"/>
<path d="M366.15 75.4773H367.996V88.8994H366.15V75.4773ZM367.086 72.5428C366.705 72.5428 366.384 72.4152 366.124 72.1601C365.864 71.9049 365.734 71.5987 365.734 71.2414C365.734 70.9012 365.864 70.6035 366.124 70.3483C366.384 70.0932 366.705 69.9656 367.086 69.9656C367.467 69.9656 367.788 70.0932 368.048 70.3483C368.308 70.5865 368.438 70.8757 368.438 71.2159C368.438 71.5902 368.308 71.9049 368.048 72.1601C367.788 72.4152 367.467 72.5428 367.086 72.5428Z" fill="black"/>
<path d="M378.72 89.027C377.402 89.027 376.215 88.7378 375.158 88.1594C374.101 87.564 373.269 86.7474 372.663 85.7097C372.056 84.672 371.753 83.4982 371.753 82.1883C371.753 80.8785 372.056 79.7047 372.663 78.667C373.269 77.6293 374.101 76.8212 375.158 76.2428C376.215 75.6644 377.402 75.3752 378.72 75.3752C380.037 75.3752 381.224 75.6644 382.281 76.2428C383.338 76.8212 384.161 77.6293 384.75 78.667C385.357 79.7047 385.66 80.8785 385.66 82.1883C385.66 83.4982 385.357 84.672 384.75 85.7097C384.161 86.7474 383.338 87.564 382.281 88.1594C381.224 88.7378 380.037 89.027 378.72 89.027ZM378.72 87.4194C379.69 87.4194 380.557 87.2067 381.319 86.7815C382.099 86.3392 382.705 85.7182 383.139 84.9187C383.572 84.1192 383.789 83.209 383.789 82.1883C383.789 81.1677 383.572 80.2575 383.139 79.458C382.705 78.6585 382.099 78.046 381.319 77.6208C380.557 77.1785 379.69 76.9573 378.72 76.9573C377.749 76.9573 376.874 77.1785 376.094 77.6208C375.332 78.046 374.725 78.6585 374.274 79.458C373.841 80.2575 373.625 81.1677 373.625 82.1883C373.625 83.209 373.841 84.1192 374.274 84.9187C374.725 85.7182 375.332 86.3392 376.094 86.7815C376.874 87.2067 377.749 87.4194 378.72 87.4194Z" fill="black"/>
<path d="M396.394 75.3752C398.11 75.3752 399.47 75.8686 400.475 76.8552C401.498 77.8249 402.009 79.2454 402.009 81.1166V88.8994H400.163V81.2952C400.163 79.9003 399.808 78.8371 399.098 78.1056C398.387 77.3741 397.373 77.0083 396.056 77.0083C394.583 77.0083 393.413 77.4421 392.547 78.3097C391.698 79.1603 391.273 80.3426 391.273 81.8566V88.8994H389.427V75.4773H391.195V77.9525C391.698 77.1359 392.391 76.5065 393.275 76.0642C394.176 75.6049 395.216 75.3752 396.394 75.3752Z" fill="black"/>
<path d="M430.877 75.3752C432.593 75.3752 433.936 75.8601 434.906 76.8297C435.894 77.7994 436.388 79.2283 436.388 81.1166V88.8994H434.542V81.2952C434.542 79.9003 434.196 78.8371 433.503 78.1056C432.827 77.3741 431.865 77.0083 430.617 77.0083C429.196 77.0083 428.078 77.4421 427.264 78.3097C426.449 79.1603 426.042 80.3426 426.042 81.8566V88.8994H424.196V81.2952C424.196 79.9003 423.85 78.8371 423.157 78.1056C422.481 77.3741 421.51 77.0083 420.245 77.0083C418.841 77.0083 417.724 77.4421 416.892 78.3097C416.077 79.1603 415.67 80.3426 415.67 81.8566V88.8994H413.824V75.4773H415.592V77.927C416.077 77.1104 416.753 76.481 417.62 76.0387C418.486 75.5964 419.483 75.3752 420.609 75.3752C421.753 75.3752 422.741 75.6134 423.573 76.0897C424.422 76.566 425.054 77.272 425.47 78.2077C425.973 77.3231 426.692 76.6341 427.628 76.1408C428.581 75.6304 429.664 75.3752 430.877 75.3752Z" fill="black"/>
<path d="M446.176 75.3752C447.961 75.3752 449.33 75.8175 450.283 76.7021C451.236 77.5697 451.713 78.8626 451.713 80.5808V88.8994H449.945V86.807C449.529 87.5044 448.914 88.0488 448.1 88.4401C447.303 88.8313 446.349 89.027 445.24 89.027C443.715 89.027 442.502 88.6697 441.601 87.9552C440.7 87.2408 440.249 86.2966 440.249 85.1228C440.249 83.9831 440.665 83.0644 441.497 82.367C442.346 81.6695 443.689 81.3208 445.526 81.3208H449.867V80.5042C449.867 79.3474 449.538 78.4713 448.88 77.8759C448.221 77.2635 447.259 76.9573 445.994 76.9573C445.128 76.9573 444.296 77.1019 443.499 77.3911C442.701 77.6633 442.017 78.046 441.445 78.5394L440.613 77.187C441.306 76.6086 442.138 76.1663 443.109 75.8601C444.079 75.5369 445.102 75.3752 446.176 75.3752ZM445.526 87.598C446.566 87.598 447.458 87.3683 448.204 86.909C448.949 86.4327 449.503 85.7523 449.867 84.8677V82.6732H445.578C443.239 82.6732 442.069 83.4727 442.069 85.0718C442.069 85.8543 442.372 86.4752 442.979 86.9346C443.585 87.3768 444.434 87.598 445.526 87.598Z" fill="black"/>
<path d="M469.254 69.9656V88.8994H467.487V86.2456C466.932 87.1472 466.196 87.8361 465.277 88.3125C464.376 88.7888 463.354 89.0269 462.21 89.0269C460.927 89.0269 459.766 88.7377 458.726 88.1594C457.687 87.581 456.872 86.7729 456.283 85.7352C455.694 84.6975 455.399 83.5152 455.399 82.1883C455.399 80.8614 455.694 79.6791 456.283 78.6414C456.872 77.6037 457.687 76.8042 458.726 76.2428C459.766 75.6644 460.927 75.3752 462.21 75.3752C463.319 75.3752 464.315 75.6049 465.199 76.0642C466.1 76.5065 466.837 77.1614 467.409 78.029V69.9656H469.254ZM462.366 87.4194C463.319 87.4194 464.177 87.2067 464.939 86.7814C465.719 86.3391 466.326 85.7182 466.759 84.9187C467.21 84.1191 467.435 83.209 467.435 82.1883C467.435 81.1676 467.21 80.2575 466.759 79.458C466.326 78.6584 465.719 78.046 464.939 77.6207C464.177 77.1784 463.319 76.9573 462.366 76.9573C461.395 76.9573 460.52 77.1784 459.74 77.6207C458.978 78.046 458.371 78.6584 457.921 79.458C457.487 80.2575 457.271 81.1676 457.271 82.1883C457.271 83.209 457.487 84.1191 457.921 84.9187C458.371 85.7182 458.978 86.3391 459.74 86.7814C460.52 87.2067 461.395 87.4194 462.366 87.4194Z" fill="black"/>
<path d="M486.3 82.7497H474.862C474.966 84.1447 475.512 85.2759 476.5 86.1435C477.488 86.9941 478.736 87.4194 480.243 87.4194C481.093 87.4194 481.872 87.2748 482.583 86.9856C483.293 86.6794 483.909 86.2371 484.429 85.6587L485.468 86.8325C484.862 87.547 484.099 88.0913 483.181 88.4656C482.28 88.8398 481.283 89.027 480.191 89.027C478.788 89.027 477.54 88.7378 476.448 88.1594C475.374 87.564 474.533 86.7474 473.927 85.7097C473.32 84.672 473.017 83.4982 473.017 82.1883C473.017 80.8785 473.303 79.7047 473.875 78.667C474.464 77.6293 475.261 76.8212 476.266 76.2428C477.289 75.6644 478.432 75.3752 479.698 75.3752C480.963 75.3752 482.098 75.6644 483.103 76.2428C484.108 76.8212 484.896 77.6293 485.468 78.667C486.04 79.6877 486.326 80.8614 486.326 82.1883L486.3 82.7497ZM479.698 76.9318C478.38 76.9318 477.271 77.3486 476.37 78.1821C475.486 78.9987 474.984 80.0704 474.862 81.3973H484.559C484.437 80.0704 483.926 78.9987 483.025 78.1821C482.141 77.3486 481.032 76.9318 479.698 76.9318Z" fill="black"/>
<path d="M508.791 82.7497H497.353C497.457 84.1447 498.003 85.2759 498.991 86.1435C499.978 86.9941 501.226 87.4194 502.734 87.4194C503.583 87.4194 504.363 87.2748 505.073 86.9856C505.784 86.6794 506.399 86.2371 506.919 85.6587L507.959 86.8325C507.352 87.547 506.59 88.0913 505.671 88.4656C504.77 88.8398 503.774 89.027 502.682 89.027C501.278 89.027 500.03 88.7378 498.939 88.1594C497.864 87.564 497.024 86.7474 496.417 85.7097C495.811 84.672 495.507 83.4982 495.507 82.1883C495.507 80.8785 495.793 79.7047 496.365 78.667C496.954 77.6293 497.752 76.8212 498.757 76.2428C499.779 75.6644 500.923 75.3752 502.188 75.3752C503.453 75.3752 504.588 75.6644 505.593 76.2428C506.598 76.8212 507.387 77.6293 507.959 78.667C508.531 79.6877 508.817 80.8614 508.817 82.1883L508.791 82.7497ZM502.188 76.9318C500.871 76.9318 499.762 77.3486 498.861 78.1821C497.977 78.9987 497.474 80.0704 497.353 81.3973H507.049C506.928 80.0704 506.416 78.9987 505.515 78.1821C504.632 77.3486 503.522 76.9318 502.188 76.9318Z" fill="black"/>
<path d="M516.976 75.3752C518.761 75.3752 520.13 75.8175 521.083 76.7021C522.036 77.5697 522.513 78.8626 522.513 80.5808V88.8994H520.745V86.807C520.329 87.5044 519.714 88.0488 518.899 88.4401C518.102 88.8313 517.149 89.027 516.04 89.027C514.515 89.027 513.302 88.6697 512.401 87.9552C511.499 87.2408 511.049 86.2966 511.049 85.1228C511.049 83.9831 511.465 83.0644 512.297 82.367C513.146 81.6695 514.489 81.3208 516.326 81.3208H520.667V80.5042C520.667 79.3474 520.338 78.4713 519.679 77.8759C519.021 77.2635 518.059 76.9573 516.794 76.9573C515.927 76.9573 515.095 77.1019 514.298 77.3911C513.501 77.6633 512.816 78.046 512.245 78.5394L511.413 77.187C512.106 76.6086 512.938 76.1663 513.908 75.8601C514.879 75.5369 515.901 75.3752 516.976 75.3752ZM516.326 87.598C517.366 87.598 518.258 87.3683 519.003 86.909C519.748 86.4327 520.303 85.7523 520.667 84.8677V82.6732H516.378C514.038 82.6732 512.868 83.4727 512.868 85.0718C512.868 85.8543 513.172 86.4752 513.778 86.9346C514.385 87.3768 515.234 87.598 516.326 87.598Z" fill="black"/>
<path d="M531.192 89.027C530.082 89.027 529.017 88.8739 527.994 88.5677C526.989 88.2444 526.201 87.8447 525.629 87.3684L526.46 85.9394C527.032 86.3817 527.752 86.7474 528.618 87.0366C529.485 87.3088 530.386 87.4449 531.322 87.4449C532.569 87.4449 533.488 87.2578 534.077 86.8835C534.684 86.4923 534.987 85.9479 534.987 85.2504C534.987 84.7571 534.822 84.3743 534.493 84.1021C534.164 83.8129 533.748 83.6003 533.245 83.4642C532.743 83.3111 532.075 83.1665 531.244 83.0304C530.134 82.8263 529.242 82.6221 528.566 82.418C527.89 82.1969 527.31 81.8311 526.824 81.3208C526.357 80.8104 526.123 80.1044 526.123 79.2028C526.123 78.0801 526.599 77.1615 527.552 76.447C528.505 75.7325 529.831 75.3752 531.529 75.3752C532.413 75.3752 533.297 75.4943 534.181 75.7325C535.065 75.9536 535.793 76.2513 536.365 76.6256L535.559 78.0801C534.432 77.3146 533.089 76.9318 531.529 76.9318C530.351 76.9318 529.459 77.1359 528.852 77.5442C528.263 77.9525 527.968 78.4883 527.968 79.1518C527.968 79.6621 528.133 80.0704 528.462 80.3766C528.809 80.6828 529.233 80.9125 529.736 81.0656C530.238 81.2017 530.932 81.3463 531.815 81.4994C532.907 81.7035 533.782 81.9077 534.441 82.1118C535.099 82.3159 535.663 82.6647 536.131 83.158C536.598 83.6513 536.832 84.3318 536.832 85.1994C536.832 86.3732 536.33 87.3088 535.325 88.0063C534.337 88.6867 532.959 89.027 531.192 89.027Z" fill="black"/>
<path d="M551.479 75.4771L544.643 90.5067C544.088 91.7656 543.447 92.6587 542.719 93.186C541.991 93.7134 541.116 93.9771 540.094 93.9771C539.435 93.9771 538.82 93.875 538.248 93.6708C537.676 93.4667 537.182 93.1605 536.766 92.7522L537.624 91.3998C538.317 92.0803 539.149 92.4205 540.12 92.4205C540.744 92.4205 541.272 92.2504 541.705 91.9102C542.156 91.5699 542.572 90.9915 542.953 90.175L543.551 88.8736L537.442 75.4771H539.366L544.513 86.8833L549.66 75.4771H551.479Z" fill="black"/>
<path d="M553.374 89.027C552.992 89.027 552.663 88.8909 552.386 88.6187C552.126 88.3465 551.996 88.0148 551.996 87.6235C551.996 87.2323 552.126 86.9091 552.386 86.6539C552.663 86.3817 552.992 86.2456 553.374 86.2456C553.755 86.2456 554.084 86.3817 554.361 86.6539C554.639 86.9091 554.777 87.2323 554.777 87.6235C554.777 88.0148 554.639 88.3465 554.361 88.6187C554.084 88.8909 553.755 89.027 553.374 89.027Z" fill="black"/>
<path d="M207.925 42.6109C205.053 42.6109 202.405 42.095 199.979 41.0629C197.592 39.9911 195.632 38.4827 194.095 36.5378L199.554 30.1075C201.859 33.1639 204.488 34.6921 207.439 34.6921C211.442 34.6921 213.444 32.3899 213.444 27.7854V7.95849H198.523V0.218262H223.21V27.2495C223.21 32.37 221.915 36.2202 219.328 38.8003C216.74 41.3407 212.938 42.6109 207.925 42.6109Z" fill="black"/>
<path d="M378.954 7.95849V18.9734H398.606V26.7137H378.954V41.8964H369.127V0.218262H401.214V7.95849H378.954Z" fill="black"/>
<path d="M246.041 43.3254C242.685 43.3254 239.43 42.8887 236.276 42.0155C233.162 41.1025 230.656 39.9316 228.755 38.5026L232.091 31.2387C233.911 32.5486 236.073 33.6004 238.581 34.3944C241.089 35.1883 243.594 35.5852 246.102 35.5852C248.892 35.5852 250.955 35.1883 252.289 34.3944C253.623 33.5608 254.291 32.4692 254.291 31.1196C254.291 30.1274 253.887 29.3135 253.077 28.6785C252.31 28.0037 251.298 27.4678 250.045 27.0709C248.832 26.674 247.173 26.2373 245.071 25.761C241.835 25.0069 239.187 24.2526 237.125 23.4985C235.063 22.7444 233.283 21.5337 231.788 19.8665C230.332 18.1994 229.604 15.9765 229.604 13.198C229.604 10.7768 230.271 8.59353 231.606 6.64861C232.94 4.66388 234.942 3.0961 237.61 1.94493C240.319 0.79376 243.615 0.218262 247.497 0.218262C250.206 0.218262 252.856 0.535866 255.443 1.1709C258.03 1.80594 260.295 2.71895 262.236 3.90976L259.204 11.2332C255.282 9.05012 251.358 7.95849 247.437 7.95849C244.686 7.95849 242.645 8.39518 241.31 9.26838C240.016 10.1416 239.369 11.2927 239.369 12.7217C239.369 14.1507 240.118 15.2224 241.614 15.9369C243.151 16.6117 245.475 17.2864 248.589 17.9613C251.824 18.7154 254.472 19.4697 256.535 20.2238C258.597 20.9779 260.356 22.1687 261.812 23.7962C263.307 25.4237 264.056 27.6267 264.056 30.4052C264.056 32.7868 263.368 34.9699 261.994 36.9546C260.659 38.8995 258.637 40.4476 255.928 41.5987C253.22 42.7499 249.923 43.3254 246.041 43.3254Z" fill="black"/>
<path d="M291.332 43.3254C286.925 43.3254 282.942 42.3927 279.383 40.527C275.865 38.6614 273.096 36.1011 271.073 32.8463C269.092 29.5517 268.101 25.8602 268.101 21.7718C268.101 17.6835 269.092 14.0117 271.073 10.7569C273.096 7.46227 275.865 4.8823 279.383 3.01665C282.942 1.151 286.925 0.218262 291.332 0.218262C295.741 0.218262 299.702 1.151 303.22 3.01665C306.738 4.8823 309.509 7.46227 311.53 10.7569C313.552 14.0117 314.563 17.6835 314.563 21.7718C314.563 25.8602 313.552 29.5517 311.53 32.8463C309.509 36.1011 306.738 38.6614 303.22 40.527C299.702 42.3927 295.741 43.3254 291.332 43.3254ZM291.332 35.1088C293.839 35.1088 296.105 34.5531 298.125 33.4417C300.148 32.2905 301.725 30.7029 302.856 28.6785C304.029 26.6541 304.615 24.352 304.615 21.7718C304.615 19.1917 304.029 16.8895 302.856 14.8652C301.725 12.8408 300.148 11.2728 298.125 10.1615C296.105 9.01031 293.839 8.43482 291.332 8.43482C288.826 8.43482 286.561 9.01031 284.538 10.1615C282.518 11.2728 280.92 12.8408 279.747 14.8652C278.615 16.8895 278.048 19.1917 278.048 21.7718C278.048 24.352 278.615 26.6541 279.747 28.6785C280.92 30.7029 282.518 32.2905 284.538 33.4417C286.561 34.5531 288.826 35.1088 291.332 35.1088Z" fill="black"/>
<path d="M360.889 0.932861V42.611H352.822L331.653 17.3064V42.611H321.948V0.932861H330.076L351.184 26.2375V0.932861H360.889Z" fill="black"/>
<path d="M432.437 33.2311H412.544L408.749 42.0422H398.588L417.686 0.92334H427.479L446.637 42.0422H436.232L432.437 33.2311ZM429.316 26.0058L422.521 10.2632L415.728 26.0058H429.316Z" fill="black"/>
<path d="M470.989 42.747C466.624 42.747 462.666 41.8462 459.115 40.0449C455.605 38.2042 452.831 35.6784 450.791 32.4673C448.791 29.2169 447.791 25.5554 447.791 21.4826C447.791 17.4099 448.791 13.7679 450.791 10.5567C452.831 7.30644 455.605 4.78057 459.115 2.97906C462.666 1.13858 466.644 0.218262 471.051 0.218262C474.764 0.218262 478.11 0.844794 481.089 2.09803C484.11 3.3511 486.64 5.15261 488.679 7.50224L482.314 13.1414C479.417 9.93013 475.826 8.32458 471.54 8.32458C468.889 8.32458 466.521 8.89242 464.44 10.0281C462.359 11.1245 460.726 12.6714 459.544 14.6687C458.401 16.6658 457.83 18.9372 457.83 21.4826C457.83 24.0281 458.401 26.2994 459.544 28.2966C460.726 30.2939 462.359 31.8603 464.44 32.996C466.521 34.0924 468.889 34.6407 471.54 34.6407C475.826 34.6407 479.417 33.0156 482.314 29.7652L488.679 35.4043C486.64 37.7931 484.11 39.6142 481.089 40.8672C478.07 42.1205 474.703 42.747 470.989 42.747Z" fill="black"/>
<path d="M503.833 8.67718H490.121V0.92334H527.458V8.67718H513.749V42.0422H503.833V8.67718Z" fill="black"/>
<path d="M552.946 42.747C548.499 42.747 544.478 41.8267 540.888 39.9862C537.338 38.1456 534.543 35.6197 532.502 32.4086C530.504 29.1582 529.504 25.5162 529.504 21.4826C529.504 17.449 530.504 13.8266 532.502 10.6155C534.543 7.36513 537.338 4.8197 540.888 2.97906C544.478 1.13858 548.499 0.218262 552.946 0.218262C557.394 0.218262 561.392 1.13858 564.943 2.97906C568.494 4.8197 571.288 7.36513 573.329 10.6155C575.369 13.8266 576.39 17.449 576.39 21.4826C576.39 25.5162 575.369 29.1582 573.329 32.4086C571.288 35.6197 568.494 38.1456 564.943 39.9862C561.392 41.8267 557.394 42.747 552.946 42.747ZM552.946 34.6407C555.476 34.6407 557.762 34.0924 559.801 32.996C561.841 31.8603 563.434 30.2939 564.576 28.2966C565.759 26.2994 566.35 24.0281 566.35 21.4826C566.35 18.9372 565.759 16.6658 564.576 14.6687C563.434 12.6714 561.841 11.1245 559.801 10.0281C557.762 8.89242 555.476 8.32458 552.946 8.32458C550.416 8.32458 548.132 8.89242 546.09 10.0281C544.05 11.1245 542.439 12.6714 541.255 14.6687C540.113 16.6658 539.541 18.9372 539.541 21.4826C539.541 24.0281 540.113 26.2994 541.255 28.2966C542.439 30.2939 544.05 31.8603 546.09 32.996C548.132 34.0924 550.416 34.6407 552.946 34.6407Z" fill="black"/>
<path d="M611.141 42.0422L602.876 30.5876H593.757V42.0422H583.841V0.92334H602.388C606.183 0.92334 609.467 1.53031 612.242 2.74425C615.058 3.95819 617.22 5.68129 618.73 7.91353C620.239 10.1456 620.995 12.789 620.995 15.8436C620.995 18.8982 620.22 21.5414 618.669 23.7737C617.16 25.9666 614.997 27.6506 612.181 28.8254L621.79 42.0422H611.141ZM610.957 15.8436C610.957 13.5331 610.181 11.7709 608.63 10.5568C607.081 9.30371 604.816 8.67718 601.837 8.67718H593.757V23.01H601.837C604.816 23.01 607.081 22.3835 608.63 21.1303C610.181 19.8772 610.957 18.115 610.957 15.8436Z" fill="black"/>
<path d="M648.82 27.4744V42.0422H638.904V27.3568L622.317 0.92334H632.845L644.29 19.1918L655.736 0.92334H665.469L648.82 27.4744Z" fill="black"/>
<g filter="url(#filter0_i)">
<path d="M790.147 400.406C788.823 406.296 787.236 412.126 785.385 417.896C785.185 418.566 784.96 419.226 784.736 419.896H758.995C756.802 419.898 754.7 420.636 753.15 421.948C751.6 423.26 750.728 425.04 750.725 426.896V489.016C749.946 490.246 749.154 491.466 748.363 492.686C744.275 498.986 740.022 505.216 735.675 511.366C664.787 611.322 565.918 694.966 447.796 754.916L454.79 741.556C452.226 741.406 449.651 741.256 447.088 741.106C391.27 737.876 335.262 734.296 280.755 723.676C223.732 712.566 167.95 693.296 123.26 661.346C78.5582 629.386 45.7883 583.746 41.2401 534.366C39.7235 517.395 41.7511 500.331 47.2298 483.956C57.7078 452.436 80.6025 424.076 113.633 407.296C165.517 380.946 233.195 386.316 287.891 408.236C342.575 430.146 387.088 466.416 430.549 502.056C386.668 438.358 325.572 384.375 252.274 344.536C227.985 331.376 202.209 319.656 181.559 302.606C160.921 285.566 145.694 261.676 149.344 237.466C153.49 210.006 180.059 189.166 206.674 173.096C217.306 166.676 228.281 160.586 239.598 154.986C271.529 139.146 306.072 127.196 342.551 122.766C391.966 116.756 445.339 125.876 483.224 153.396C525.906 184.406 543.413 234.416 541.748 282.256C568.044 249.896 608.599 225.126 654.399 224.076C701.948 222.996 747.146 248.426 770.961 283.286C794.766 318.136 799.042 360.856 790.147 400.406Z" fill="#3CD154"/>
</g>
<path d="M489.31 534.801C517.16 532.725 542.886 530.299 569.873 523.835C596.032 517.569 621.203 507.08 639.825 489.953C659.854 471.531 670.666 447.607 678.294 423.792C682.548 410.514 686.042 397.05 689.34 383.582C692.918 368.968 696.096 354.291 698.876 339.548C704.411 310.203 708.361 280.685 710.729 250.994C711.015 247.39 711.277 243.785 711.516 240.179C711.663 237.954 707.575 237.961 707.428 240.179C705.483 269.445 701.984 298.598 696.932 327.636C691.946 356.166 685.567 384.573 677.473 412.591C670.616 436.327 661.738 460.434 644.152 480.194C627.661 498.723 603.843 510.831 578.125 518.071C551.955 525.438 524.362 528.379 497.015 530.566C493.66 530.835 492.667 531.09 489.31 531.341C486.71 531.534 486.686 534.996 489.31 534.801L489.31 534.801Z" fill="white"/>
<path d="M49.5891 486.509C84.7263 488.158 119.506 493.346 153.193 501.963C186.894 510.562 219.28 522.495 249.68 537.514C279.054 552.039 306.323 569.419 330.932 589.3C354.816 608.607 376.102 630.092 394.402 653.362C412.785 676.691 428.019 701.692 439.82 727.895C441.259 731.102 442.645 734.326 443.978 737.566C444.839 739.655 448.789 738.756 447.919 736.646C436.879 709.889 422.325 684.266 404.531 660.259C386.74 636.249 365.86 613.983 342.274 593.867C318.31 573.44 291.64 555.423 262.793 540.175C202.225 508.238 133.571 488.917 62.4697 483.8C58.1808 483.495 53.8872 483.245 49.5892 483.049C46.9607 482.927 46.9688 486.387 49.5892 486.509L49.5891 486.509Z" fill="white"/>
<path d="M240.703 159.042C263.169 165.09 284.464 173.899 303.905 185.186C323.772 196.798 341.89 210.419 357.859 225.746C374.688 241.87 389.649 259.324 402.537 277.867C416.208 297.447 428.083 317.885 438.06 339.003C448.333 360.683 456.973 382.893 463.929 405.498C471 428.371 476.523 451.567 480.471 474.973C484.399 498.13 486.776 521.457 487.591 544.842C488.413 567.203 487.632 589.586 485.253 611.867C483.077 632.654 479.104 653.278 473.365 673.573C468.268 691.903 461.086 709.772 451.918 726.929C449.794 730.823 447.541 734.663 445.158 738.45C443.922 740.414 447.449 742.164 448.688 740.196C458.819 723.808 466.909 706.572 472.827 688.767C479.467 668.946 484.279 648.719 487.222 628.268C490.484 606.079 492.073 583.737 491.978 561.378C491.92 537.888 490.268 514.42 487.031 491.09C483.793 467.469 478.985 444.021 472.631 420.858C466.292 397.657 458.25 374.813 448.554 352.459C439.208 330.819 428.019 309.782 415.073 289.514C402.743 270.173 388.374 251.815 372.142 234.663C356.726 218.332 339.126 203.568 319.695 190.667C300.958 178.264 280.253 168.154 258.188 160.634C252.797 158.817 247.33 157.174 241.789 155.705C239.274 155.035 238.198 158.375 240.702 159.042H240.703Z" fill="white"/>
<path d="M483.153 760.896C644.63 760.896 775.533 756.418 775.533 750.896C775.533 745.373 644.63 740.896 483.153 740.896C321.676 740.896 190.773 745.373 190.773 750.896C190.773 756.418 321.676 760.896 483.153 760.896Z" fill="#E6E6E6"/>
<path d="M741.475 437.685C741.33 438.225 741.235 438.773 741.192 439.325L690.445 464.107L678.11 458.097L664.96 472.669L691.348 488.589L749.243 449.927C751.604 450.666 754.175 450.78 756.615 450.252C759.054 449.725 761.246 448.581 762.899 446.973C764.552 445.366 765.587 443.37 765.868 441.252C766.148 439.134 765.66 436.994 764.469 435.116C763.277 433.239 761.439 431.713 759.198 430.741C756.957 429.77 754.419 429.399 751.923 429.678C749.427 429.957 747.091 430.872 745.224 432.302C743.358 433.733 742.05 435.61 741.475 437.685V437.685Z" fill="#FFB8B8"/>
<path d="M625.901 452.889L665.859 476.996L683.73 458.029L644.888 431.647C643.217 430.512 641.289 429.677 639.224 429.195C637.159 428.712 634.999 428.592 632.876 428.841C630.754 429.09 628.714 429.703 626.882 430.643C625.049 431.582 623.463 432.829 622.219 434.306V434.306C619.796 437.183 618.823 440.758 619.514 444.243C620.204 447.728 622.502 450.838 625.901 452.889Z" fill="white"/>
<path d="M543.419 727.957L557.43 731.064L578.256 686.8L557.58 682.213L543.419 727.957Z" fill="#FFB8B8"/>
<path d="M581.04 748.07L537.009 738.303L541.466 723.903L568.485 729.896C572.997 730.897 576.855 733.373 579.209 736.782C581.563 740.19 582.222 744.251 581.04 748.07V748.07V748.07Z" fill="#393939"/>
<path d="M667.959 736.401L682.216 734.245L679.178 686.668L658.136 689.85L667.959 736.401Z" fill="#FFB8B8"/>
<path d="M712.077 741.294L667.269 748.07L664.176 733.415L691.672 729.257C693.946 728.914 696.277 728.952 698.533 729.371C700.789 729.79 702.925 730.581 704.82 731.699C706.715 732.816 708.331 734.239 709.576 735.886C710.821 737.532 711.671 739.37 712.077 741.294V741.294V741.294Z" fill="#393939"/>
<path d="M639.885 386.508C643.398 387.232 646.256 390.263 647.973 393.773C649.556 397.461 650.628 401.291 651.167 405.188C652.516 412.444 653.811 420.3 651.021 427.021C647.752 434.899 639.04 439.025 631.483 437.086C623.927 435.147 617.917 427.869 615.863 419.492C613.994 411.027 615.198 402.281 619.318 394.407C621.465 390.27 624.423 386.453 628.356 384.587C630.284 383.6 632.583 383.267 634.79 383.656C636.997 384.046 638.947 385.128 640.25 386.685" fill="#393939"/>
<path d="M659.763 517.896L686.906 723.69L664.488 730.896L623.141 592.896L565.577 719.074L541.039 720.228C541.039 720.228 574.707 523.896 599.658 519.434L659.763 517.896Z" fill="#393939"/>
<path d="M636.964 412.771C652.989 412.771 665.979 401.775 665.979 388.21C665.979 374.646 652.989 363.649 636.964 363.649C620.94 363.649 607.949 374.646 607.949 388.21C607.949 401.775 620.94 412.771 636.964 412.771Z" fill="#FFB8B8"/>
<path d="M649.417 423.076L618.062 419.614C618.062 419.614 597.614 440.386 598.977 476.159C600.34 511.933 595.569 522.896 595.569 522.896L660.944 523.896C651.493 512.896 691.023 449.719 649.417 423.076Z" fill="white"/>
<path d="M666.26 528.896C665.606 528.9 664.954 528.947 664.309 529.038L624.197 492.892L628.287 481.352L608.52 473.851L596.25 499.239L653.961 538.098C653.65 540.213 654.108 542.358 655.273 544.248C656.438 546.137 658.255 547.681 660.482 548.676C662.709 549.67 665.241 550.066 667.741 549.813C670.241 549.559 672.59 548.667 674.477 547.256C676.363 545.844 677.697 543.98 678.302 541.911C678.906 539.842 678.752 537.666 677.86 535.673C676.968 533.68 675.381 531.964 673.308 530.753C671.236 529.543 668.778 528.895 666.26 528.896V528.896Z" fill="#FFB8B8"/>
<path d="M622.327 437.139L603.748 475.582L629.65 485.968L651.1 447.923C652.023 446.286 652.542 444.507 652.624 442.694C652.706 440.882 652.35 439.075 651.578 437.383C650.806 435.691 649.634 434.15 648.134 432.855C646.634 431.56 644.838 430.538 642.855 429.851V429.851C640.942 429.189 638.893 428.852 636.826 428.86C634.759 428.867 632.714 429.219 630.808 429.896C628.902 430.573 627.172 431.561 625.716 432.803C624.261 434.046 623.109 435.519 622.327 437.139V437.139Z" fill="white"/>
<path d="M629.374 410.54C633.921 408.32 634.405 402.964 633.788 398.552C633.17 394.14 632.138 389.222 635.201 385.614C638.858 381.309 646.204 381.223 652.466 381.082C658.728 380.942 666.354 379.39 667.976 374.268C669.048 370.884 666.755 367.252 663.463 365.128C660.171 363.004 656.053 362.064 652.051 361.172C643.097 359.175 633.852 357.162 624.684 358.259C615.603 359.346 607.393 363.416 601.83 369.588C596.267 375.76 593.798 383.538 594.958 391.239C596.442 401.09 598.594 405.392 597.182 409.735C594.55 417.826 583.205 423.023 582.979 431.412C582.803 437.974 589.65 443.036 596.33 446.368C601.629 449.011 607.348 451.253 613.455 451.872C619.562 452.491 626.137 451.306 630.686 447.802C636.553 443.283 638.004 435.734 636.322 429.172C634.64 422.609 630.324 416.782 626.054 411.123" fill="#393939"/>
<path d="M1020.27 428H754.732C752.947 428.003 751.237 428.914 749.975 430.533C748.713 432.151 748.003 434.345 748 436.634V655.366C748.003 657.655 748.713 659.849 749.975 661.467C751.237 663.086 752.947 663.997 754.732 664H1020.27C1022.05 663.997 1023.76 663.086 1025.03 661.467C1026.29 659.849 1027 657.655 1027 655.366V436.634C1027 434.345 1026.29 432.151 1025.03 430.533C1023.76 428.914 1022.05 428.003 1020.27 428V428ZM1025.5 655.366C1025.5 657.146 1024.95 658.853 1023.97 660.112C1022.99 661.371 1021.66 662.079 1020.27 662.081H754.732C753.344 662.079 752.013 661.371 751.031 660.112C750.05 658.853 749.498 657.146 749.496 655.366V436.634C749.498 434.854 750.05 433.147 751.031 431.888C752.013 430.629 753.344 429.921 754.732 429.919H1020.27C1021.66 429.921 1022.99 430.629 1023.97 431.888C1024.95 433.147 1025.5 434.854 1025.5 436.634V655.366Z" fill="#3F3D56"/>
<path d="M848.51 531.391H782.356C779.694 531.388 777.141 530.492 775.259 528.899C773.377 527.305 772.318 525.145 772.314 522.891V466.891C772.318 464.638 773.377 462.477 775.259 460.884C777.141 459.29 779.694 458.394 782.356 458.391H848.51C851.173 458.394 853.725 459.29 855.607 460.884C857.49 462.477 858.549 464.638 858.552 466.891V522.891C858.549 525.145 857.49 527.305 855.607 528.899C853.725 530.492 851.173 531.388 848.51 531.391V531.391Z" fill="white"/>
<path d="M993.582 591H777.418C776.247 591 775.123 590.315 774.294 589.096C773.466 587.877 773 586.224 773 584.5C773 582.776 773.466 581.123 774.294 579.904C775.123 578.685 776.247 578 777.418 578H993.582C994.753 578 995.877 578.685 996.706 579.904C997.534 581.123 998 582.776 998 584.5C998 586.224 997.534 587.877 996.706 589.096C995.877 590.315 994.753 591 993.582 591V591Z" fill="#CCCCCC"/>
<path d="M993.582 559H777.418C776.247 559 775.123 558.315 774.294 557.096C773.466 555.877 773 554.224 773 552.5C773 550.776 773.466 549.123 774.294 547.904C775.123 546.685 776.247 546 777.418 546H993.582C994.753 546 995.877 546.685 996.706 547.904C997.534 549.123 998 550.776 998 552.5C998 554.224 997.534 555.877 996.706 557.096C995.877 558.315 994.753 559 993.582 559V559Z" fill="#CCCCCC"/>
<path d="M971.309 516.391H915.787C913.75 516.391 911.797 515.706 910.357 514.487C908.917 513.268 908.108 511.615 908.108 509.891C908.108 508.167 908.917 506.513 910.357 505.294C911.797 504.075 913.75 503.391 915.787 503.391H971.309C973.346 503.391 975.299 504.075 976.739 505.294C978.179 506.513 978.988 508.167 978.988 509.891C978.988 511.615 978.179 513.268 976.739 514.487C975.299 515.706 973.346 516.391 971.309 516.391V516.391Z" fill="#CCCCCC"/>
<path d="M995.304 484H910.696C909.981 484 909.295 483.315 908.79 482.096C908.284 480.877 908 479.224 908 477.5C908 475.776 908.284 474.123 908.79 472.904C909.295 471.685 909.981 471 910.696 471H995.304C996.019 471 996.705 471.685 997.21 472.904C997.716 474.123 998 475.776 998 477.5C998 479.224 997.716 480.877 997.21 482.096C996.705 483.315 996.019 484 995.304 484V484Z" fill="#CCCCCC"/>
<path d="M961.858 622.9H780.862C778.826 622.9 776.873 622.216 775.433 620.997C773.993 619.778 773.184 618.124 773.184 616.4C773.184 614.676 773.993 613.023 775.433 611.804C776.873 610.585 778.826 609.9 780.862 609.9H961.858C963.895 609.9 965.848 610.585 967.288 611.804C968.728 613.023 969.537 614.676 969.537 616.4C969.537 618.124 968.728 619.778 967.288 620.997C965.848 622.216 963.895 622.9 961.858 622.9V622.9Z" fill="#CCCCCC"/>
<path opacity="0.1" d="M513.601 798C797.255 798 1027.2 782.106 1027.2 762.5C1027.2 742.894 797.255 727 513.601 727C229.947 727 0 742.894 0 762.5C0 782.106 229.947 798 513.601 798Z" fill="black"/>
<path d="M256.311 405H256.311C265.622 405 274.552 408.212 281.136 413.93C287.719 419.647 291.418 427.402 291.418 435.488V465.976H221.204V435.488C221.204 427.402 224.903 419.647 231.487 413.93C238.07 408.212 247 405 256.311 405L256.311 405Z" fill="#393939"/>
<path d="M285.765 464.167L285.254 467.045L283.385 477.602V493.621L261.964 502.406L242.328 503.956L234.592 482.015L233.402 478.636C233.402 478.636 233.747 478.434 234.348 478.088C234.872 477.778 235.598 477.354 236.467 476.848C239.097 475.313 243 473.008 246.493 470.884C252.443 467.267 246.493 445.047 246.493 445.047L266.129 443.497C266.129 443.497 267.914 447.631 269.699 456.416C271.038 463.004 279.405 464.069 283.504 464.187C284.258 464.218 285.013 464.211 285.765 464.167V464.167Z" fill="#FFB9B9"/>
<path d="M222.691 706.002V744.241H234.592L240.542 704.452L222.691 706.002Z" fill="#FFB9B9"/>
<path d="M229.237 731.323L222.096 730.289C222.096 730.289 219.121 750.959 216.146 755.609C213.171 760.26 197.105 779.38 206.03 780.413C214.956 781.446 226.857 780.413 227.452 777.829C228.047 775.246 232.807 759.743 233.402 760.777C233.997 761.81 233.402 772.145 233.402 772.145H235.782V759.743C235.782 759.743 245.898 753.542 242.923 750.442C239.947 747.342 236.972 739.59 236.972 739.59L237.567 731.839L229.237 731.323Z" fill="#393939"/>
<path d="M313.137 706.002V744.241H301.236L295.286 704.452L313.137 706.002Z" fill="#FFB9B9"/>
<path d="M306.592 731.323L313.732 730.289C313.732 730.289 316.708 750.959 319.683 755.609C322.658 760.26 338.724 779.38 329.798 780.413C320.873 781.446 308.972 780.413 308.377 777.829C307.782 775.246 303.022 759.743 302.427 760.777C301.832 761.81 302.427 772.145 302.427 772.145H300.047V759.743C300.047 759.743 289.931 753.542 292.906 750.442C295.881 747.342 298.856 739.59 298.856 739.59L298.261 731.839L306.592 731.323Z" fill="#393939"/>
<path d="M256.014 455.382C268.501 455.382 278.625 446.591 278.625 435.746C278.625 424.901 268.501 416.11 256.014 416.11C243.526 416.11 233.402 424.901 233.402 435.746C233.402 446.591 243.526 455.382 256.014 455.382Z" fill="#FFB9B9"/>
<path d="M326.823 521.525L311.947 569.582L310.162 586.635L299.451 569.582C299.451 569.582 305.402 561.831 306.592 556.664C307.782 551.496 313.137 524.109 313.137 524.109L296.405 492.872L295.715 491.585L289.931 491.554L283.98 484.837L287.551 476.569V470.368L285.254 467.045L283.98 465.201L285.766 464.167L295.286 463.134C295.677 463.107 296.07 463.129 296.452 463.201C298.946 463.599 304.967 465.976 309.567 479.153C315.517 496.205 326.823 521.525 326.823 521.525Z" fill="#FFB9B9"/>
<path d="M242.328 515.324V546.329L222.691 593.869C222.691 593.869 217.931 613.505 203.65 614.539C189.369 615.572 213.171 591.285 213.171 591.285L228.642 540.128V513.257C228.642 513.257 224.477 499.305 223.287 493.104C222.4 488.474 224.161 483.56 225.113 481.364C225.435 480.62 225.667 480.186 225.667 480.186L233.402 478.119L234.348 478.088L234.592 482.015L235.187 491.554L242.328 515.324Z" fill="#FFB9B9"/>
<path d="M291.121 532.893C291.121 532.893 295.286 544.262 295.881 544.778C296.476 545.295 282.79 547.362 282.79 547.362H256.608L243.518 542.195L244.708 532.376L291.121 532.893Z" fill="#FFB9B9"/>
<path d="M297.666 539.611C297.666 539.611 296.476 550.979 299.451 555.113C302.427 559.247 310.162 566.998 312.542 589.735C314.922 612.472 317.898 698.251 319.088 701.868C320.278 705.485 323.848 710.136 320.278 710.653C316.708 711.169 288.741 716.854 288.741 710.653C288.741 704.452 288.741 702.385 286.956 701.351C285.171 700.318 263.749 619.189 263.749 619.189L244.113 703.418C244.113 703.418 251.848 712.72 239.948 711.686C228.047 710.653 207.221 709.103 209.601 703.935C210.832 701.425 211.827 698.833 212.576 696.184L224.477 603.17C224.477 603.17 226.857 563.898 242.328 542.97L243.518 537.99C243.518 537.99 265.534 539.611 273.27 541.678C281.005 543.745 297.666 539.611 297.666 539.611Z" fill="#393939"/>
<path d="M296.405 492.872C295.905 498.52 292.954 532.206 293.501 535.994C293.501 535.994 296.476 539.095 287.551 537.544C278.625 535.994 252.443 537.544 249.468 538.061C246.493 538.578 242.923 540.645 242.923 537.028C242.923 533.41 244.113 522.559 242.328 521.009C240.543 519.458 231.617 506.023 232.212 502.406C232.64 499.807 227.85 487.88 225.113 481.364C225.435 480.62 225.667 480.186 225.667 480.186L233.402 478.119L234.348 478.088C234.872 477.778 235.598 477.354 236.467 476.848L239.353 488.971L240.543 493.105C240.543 493.105 260.179 493.105 275.65 483.286L283.504 464.188C284.258 464.218 285.013 464.211 285.765 464.167L295.286 463.134C295.677 463.107 296.069 463.129 296.452 463.201L287.551 486.387L295.714 491.585L296.476 492.071C296.476 492.071 296.452 492.355 296.405 492.872Z" fill="#FF6584"/>
<path d="M272.377 431.87H240.841L233.7 415.852H277.733L272.377 431.87Z" fill="#393939"/>
<path d="M235.025 443.592C235.971 443.354 236.146 441.383 235.414 439.19C234.682 436.997 233.322 435.413 232.375 435.651C231.428 435.889 231.253 437.86 231.985 440.053C232.717 442.246 234.078 443.831 235.025 443.592Z" fill="#FFB9B9"/>
<path d="M280.042 440.053C280.774 437.86 280.599 435.889 279.652 435.651C278.705 435.413 277.344 436.997 276.613 439.19C275.881 441.383 276.055 443.354 277.002 443.592C277.949 443.83 279.31 442.246 280.042 440.053Z" fill="#FFB9B9"/>
<path d="M207.013 606.056H85.1008V740.856H207.013V606.056Z" fill="#B7B7B7"/>
<path d="M184.365 640.833H107.749C106.593 640.833 105.656 641.647 105.656 642.651V658.713C105.656 659.717 106.593 660.53 107.749 660.53H184.365C185.521 660.53 186.458 659.717 186.458 658.713V642.651C186.458 641.647 185.521 640.833 184.365 640.833Z" fill="white"/>
<path d="M167.32 646.373C168.495 646.373 169.447 645.547 169.447 644.527C169.447 643.507 168.495 642.68 167.32 642.68C166.146 642.68 165.194 643.507 165.194 644.527C165.194 645.547 166.146 646.373 167.32 646.373Z" fill="#6C63FF"/>
<path d="M173.699 646.373C174.874 646.373 175.826 645.547 175.826 644.527C175.826 643.507 174.874 642.68 173.699 642.68C172.525 642.68 171.573 643.507 171.573 644.527C171.573 645.547 172.525 646.373 173.699 646.373Z" fill="#6C63FF"/>
<path d="M180.078 646.373C181.253 646.373 182.205 645.547 182.205 644.527C182.205 643.507 181.253 642.68 180.078 642.68C178.904 642.68 177.952 643.507 177.952 644.527C177.952 645.547 178.904 646.373 180.078 646.373Z" fill="#6C63FF"/>
<path d="M184.365 663.607H107.749C106.593 663.607 105.656 664.421 105.656 665.425V681.487C105.656 682.49 106.593 683.304 107.749 683.304H184.365C185.521 683.304 186.458 682.49 186.458 681.487V665.425C186.458 664.421 185.521 663.607 184.365 663.607Z" fill="white"/>
<path d="M167.32 669.148C168.495 669.148 169.447 668.321 169.447 667.301C169.447 666.281 168.495 665.455 167.32 665.455C166.146 665.455 165.194 666.281 165.194 667.301C165.194 668.321 166.146 669.148 167.32 669.148Z" fill="#6C63FF"/>
<path d="M173.699 669.148C174.874 669.148 175.826 668.321 175.826 667.301C175.826 666.281 174.874 665.455 173.699 665.455C172.525 665.455 171.573 666.281 171.573 667.301C171.573 668.321 172.525 669.148 173.699 669.148Z" fill="#6C63FF"/>
<path d="M180.078 669.148C181.253 669.148 182.205 668.321 182.205 667.301C182.205 666.281 181.253 665.455 180.078 665.455C178.904 665.455 177.952 666.281 177.952 667.301C177.952 668.321 178.904 669.148 180.078 669.148Z" fill="#6C63FF"/>
<path d="M184.365 686.382H107.749C106.593 686.382 105.656 687.196 105.656 688.2V704.262C105.656 705.265 106.593 706.079 107.749 706.079H184.365C185.521 706.079 186.458 705.265 186.458 704.262V688.2C186.458 687.196 185.521 686.382 184.365 686.382Z" fill="white"/>
<path d="M167.32 691.922C168.495 691.922 169.447 691.095 169.447 690.075C169.447 689.055 168.495 688.229 167.32 688.229C166.146 688.229 165.194 689.055 165.194 690.075C165.194 691.095 166.146 691.922 167.32 691.922Z" fill="#6C63FF"/>
<path d="M173.699 691.922C174.874 691.922 175.826 691.095 175.826 690.075C175.826 689.055 174.874 688.229 173.699 688.229C172.525 688.229 171.573 689.055 171.573 690.075C171.573 691.095 172.525 691.922 173.699 691.922Z" fill="#6C63FF"/>
<path d="M180.078 691.922C181.253 691.922 182.205 691.095 182.205 690.075C182.205 689.055 181.253 688.229 180.078 688.229C178.904 688.229 177.952 689.055 177.952 690.075C177.952 691.095 178.904 691.922 180.078 691.922Z" fill="#6C63FF"/>
<defs>
<filter id="filter0_i" x="40.7524" y="121" width="753.681" height="637.916" filterUnits="userSpaceOnUse" color-interpolation-filters="sRGB">
<feFlood flood-opacity="0" result="BackgroundImageFix"/>
<feBlend mode="normal" in="SourceGraphic" in2="BackgroundImageFix" result="shape"/>
<feColorMatrix in="SourceAlpha" type="matrix" values="0 0 0 0 0 0 0 0 0 0 0 0 0 0 0 0 0 0 127 0" result="hardAlpha"/>
<feOffset dy="4"/>
<feGaussianBlur stdDeviation="2"/>
<feComposite in2="hardAlpha" operator="arithmetic" k2="-1" k3="1"/>
<feColorMatrix type="matrix" values="0 0 0 0 0 0 0 0 0 0 0 0 0 0 0 0 0 0 0.25 0"/>
<feBlend mode="normal" in2="shape" result="effect1_innerShadow"/>
</filter>
</defs>
</svg>
