<svg width="958" height="684" viewBox="0 0 958 684" fill="none" xmlns="http://www.w3.org/2000/svg">
<g filter="url(#filter0_i)">
<path d="M625.223 279.406C624.119 285.296 622.795 291.126 621.251 296.896C621.084 297.566 620.896 298.226 620.709 298.896H599.233C597.404 298.898 595.65 299.636 594.357 300.948C593.064 302.26 592.336 304.04 592.334 305.896V368.016C591.683 369.246 591.023 370.466 590.363 371.686C586.953 377.986 583.405 384.216 579.777 390.366C520.635 490.322 438.148 573.966 339.598 633.916L345.433 620.556C343.294 620.406 341.146 620.256 339.007 620.106C292.438 616.876 245.711 613.296 200.236 602.676C152.661 591.566 106.122 572.296 68.8367 540.346C31.5416 508.386 4.20147 462.746 0.406844 413.366C-0.858462 396.395 0.833152 379.331 5.40411 362.956C14.1459 331.436 33.2471 303.076 60.8043 286.296C104.091 259.946 160.556 265.316 206.189 287.236C251.812 309.146 288.949 345.416 325.209 381.056C288.599 317.358 237.627 263.375 176.473 223.536C156.209 210.376 134.704 198.656 117.476 181.606C100.257 164.566 87.5529 140.676 90.5987 116.466C94.0579 89.0057 116.224 68.1657 138.429 52.0957C147.3 45.6757 156.456 39.5857 165.898 33.9857C192.538 18.1457 221.357 6.19566 251.792 1.76566C293.02 -4.24434 337.549 4.87566 369.157 32.3957C404.766 63.4057 419.372 113.416 417.983 161.256C439.922 128.896 473.757 104.126 511.969 103.076C551.639 101.996 589.348 127.426 609.217 162.286C629.077 197.136 632.645 239.856 625.223 279.406Z" fill="#3CD154"/>
</g>
<path d="M374.234 413.801C397.469 411.725 418.932 409.299 441.448 402.835C463.272 396.569 484.273 386.08 499.809 368.953C516.52 350.531 525.54 326.607 531.904 302.792C535.453 289.514 538.368 276.05 541.12 262.582C544.105 247.969 546.757 233.291 549.076 218.548C553.693 189.203 556.989 159.685 558.965 129.995C559.203 126.391 559.422 122.785 559.621 119.179C559.744 116.954 556.334 116.961 556.211 119.179C554.588 148.445 551.669 177.598 547.454 206.636C543.294 235.166 537.972 263.573 531.219 291.591C525.498 315.328 518.091 339.435 503.419 359.194C489.661 377.723 469.789 389.832 448.332 397.071C426.499 404.438 403.478 407.38 380.662 409.567C377.863 409.835 377.035 410.091 374.234 410.341C372.065 410.535 372.045 413.997 374.234 413.801L374.234 413.801Z" fill="white"/>
<path d="M7.37237 365.509C36.6875 367.158 65.7044 372.346 93.8096 380.963C121.927 389.562 148.947 401.495 174.309 416.514C198.816 431.039 221.566 448.419 242.098 468.3C262.025 487.607 279.784 509.092 295.051 532.362C310.388 555.691 323.099 580.692 332.944 606.895C334.144 610.102 335.301 613.326 336.413 616.566C337.131 618.655 340.427 617.756 339.701 615.646C330.49 588.889 318.348 563.266 303.502 539.259C288.659 515.249 271.239 492.983 251.561 472.867C231.568 452.44 209.317 434.423 185.25 419.175C134.717 387.238 77.4392 367.917 18.1187 362.8C14.5404 362.495 10.9583 362.245 7.37241 362.049C5.17947 361.927 5.1862 365.387 7.37241 365.509L7.37237 365.509Z" fill="white"/>
<path d="M166.819 38.0417C185.563 44.09 203.329 52.8988 219.55 64.1859C236.125 75.7982 251.241 89.4188 264.564 104.746C278.604 120.87 291.086 138.324 301.839 156.867C313.244 176.447 323.152 196.885 331.476 218.003C340.046 239.683 347.255 261.893 353.059 284.498C358.958 307.371 363.565 330.567 366.859 353.973C370.137 377.13 372.12 400.457 372.8 423.842C373.485 446.203 372.834 468.586 370.849 490.867C369.034 511.654 365.719 532.278 360.931 552.573C356.679 570.903 350.686 588.772 343.038 605.929C341.266 609.823 339.386 613.663 337.398 617.45C336.366 619.414 339.309 621.164 340.342 619.196C348.795 602.808 355.545 585.572 360.482 567.767C366.021 547.946 370.037 527.719 372.492 507.268C375.214 485.079 376.539 462.737 376.46 440.378C376.411 416.888 375.033 393.42 372.333 370.09C369.631 346.469 365.62 323.021 360.318 299.858C355.029 276.657 348.321 253.813 340.231 231.459C332.434 209.819 323.098 188.782 312.298 168.514C302.011 149.173 290.023 130.815 276.48 113.663C263.618 97.3316 248.935 82.5677 232.723 69.6665C217.091 57.2637 199.816 47.1538 181.408 39.634C176.909 37.8173 172.349 36.1744 167.726 34.7052C165.628 34.0354 164.73 37.3747 166.819 38.0417H166.819Z" fill="white"/>
<path d="M369.097 639.896C503.819 639.896 613.032 635.418 613.032 629.896C613.032 624.373 503.819 619.896 369.097 619.896C234.376 619.896 125.163 624.373 125.163 629.896C125.163 635.418 234.376 639.896 369.097 639.896Z" fill="#E6E6E6"/>
<path d="M584.616 316.685C584.495 317.225 584.416 317.773 584.38 318.325L542.042 343.107L531.751 337.097L520.78 351.669L542.795 367.589L591.097 328.927C593.067 329.666 595.212 329.78 597.247 329.252C599.283 328.725 601.111 327.581 602.49 325.973C603.869 324.366 604.733 322.37 604.967 320.252C605.201 318.134 604.794 315.994 603.8 314.116C602.806 312.239 601.272 310.713 599.402 309.741C597.533 308.77 595.416 308.399 593.333 308.678C591.251 308.957 589.301 309.872 587.744 311.302C586.187 312.733 585.096 314.61 584.616 316.685V316.685Z" fill="#FFB8B8"/>
<path d="M488.193 331.889L521.53 355.996L536.44 337.029L504.033 310.647C502.639 309.512 501.031 308.677 499.308 308.195C497.585 307.712 495.783 307.592 494.012 307.841C492.241 308.09 490.54 308.703 489.011 309.643C487.482 310.582 486.158 311.829 485.121 313.306V313.306C483.099 316.183 482.287 319.758 482.863 323.243C483.439 326.728 485.357 329.838 488.193 331.889Z" fill="white"/>
<path d="M419.377 606.957L431.066 610.064L448.442 565.8L431.191 561.213L419.377 606.957Z" fill="#FFB8B8"/>
<path d="M450.764 627.07L414.029 617.303L417.748 602.903L440.29 608.896C444.054 609.897 447.273 612.373 449.237 615.782C451.201 619.19 451.751 623.251 450.764 627.07V627.07V627.07Z" fill="#393939"/>
<path d="M523.281 615.401L535.176 613.245L532.641 565.668L515.086 568.85L523.281 615.401Z" fill="#FFB8B8"/>
<path d="M560.09 620.294L522.706 627.07L520.126 612.415L543.066 608.257C544.963 607.914 546.907 607.952 548.79 608.371C550.672 608.79 552.454 609.581 554.035 610.699C555.616 611.816 556.964 613.239 558.003 614.886C559.042 616.532 559.751 618.37 560.09 620.294V620.294V620.294Z" fill="#393939"/>
<path d="M499.859 265.508C502.79 266.232 505.175 269.263 506.607 272.773C507.928 276.461 508.822 280.291 509.272 284.188C510.397 291.444 511.478 299.3 509.151 306.021C506.423 313.899 499.155 318.025 492.85 316.086C486.545 314.147 481.531 306.869 479.818 298.492C478.258 290.027 479.263 281.281 482.7 273.407C484.491 269.27 486.96 265.453 490.24 263.587C491.85 262.6 493.768 262.267 495.609 262.656C497.45 263.046 499.077 264.128 500.164 265.685" fill="#393939"/>
<path d="M516.443 396.896L539.089 602.69L520.386 609.896L485.89 471.896L437.864 598.074L417.391 599.228C417.391 599.228 445.481 402.896 466.298 398.434L516.443 396.896Z" fill="#393939"/>
<path d="M497.423 291.771C510.792 291.771 521.63 280.775 521.63 267.21C521.63 253.646 510.792 242.649 497.423 242.649C484.053 242.649 473.215 253.646 473.215 267.21C473.215 280.775 484.053 291.771 497.423 291.771Z" fill="#FFB8B8"/>
<path d="M507.812 302.076L481.652 298.614C481.652 298.614 464.592 319.386 465.729 355.159C466.867 390.933 462.886 401.896 462.886 401.896L517.429 402.896C509.544 391.896 542.524 328.719 507.812 302.076Z" fill="white"/>
<path d="M521.864 407.896C521.319 407.9 520.775 407.947 520.237 408.038L486.771 371.892L490.183 360.352L473.691 352.851L463.454 378.239L511.603 417.098C511.344 419.213 511.726 421.358 512.698 423.248C513.669 425.137 515.185 426.681 517.043 427.676C518.901 428.67 521.014 429.066 523.099 428.813C525.185 428.559 527.145 427.667 528.719 426.256C530.293 424.844 531.406 422.98 531.91 420.911C532.415 418.842 532.286 416.666 531.542 414.673C530.798 412.68 529.473 410.964 527.745 409.753C526.016 408.543 523.965 407.895 521.864 407.896V407.896Z" fill="#FFB8B8"/>
<path d="M485.21 316.139L469.71 354.582L491.32 364.968L509.216 326.923C509.986 325.286 510.419 323.507 510.487 321.694C510.556 319.882 510.259 318.075 509.615 316.383C508.971 314.691 507.993 313.15 506.742 311.855C505.49 310.56 503.991 309.538 502.337 308.851V308.851C500.741 308.189 499.032 307.852 497.307 307.86C495.583 307.867 493.876 308.219 492.286 308.896C490.696 309.573 489.252 310.561 488.038 311.803C486.824 313.046 485.863 314.519 485.21 316.139V316.139Z" fill="white"/>
<path d="M491.09 289.54C494.883 287.32 495.288 281.964 494.772 277.552C494.257 273.14 493.396 268.222 495.952 264.614C499.002 260.309 505.131 260.223 510.356 260.082C515.58 259.942 521.942 258.39 523.296 253.268C524.19 249.884 522.277 246.252 519.53 244.128C516.784 242.004 513.349 241.064 510.009 240.172C502.539 238.175 494.826 236.162 487.177 237.259C479.601 238.346 472.751 242.416 468.11 248.588C463.468 254.76 461.409 262.538 462.377 270.239C463.615 280.09 465.41 284.392 464.232 288.735C462.036 296.826 452.571 302.023 452.383 310.412C452.235 316.974 457.948 322.036 463.521 325.368C467.942 328.011 472.714 330.253 477.809 330.872C482.904 331.491 488.389 330.306 492.184 326.802C497.079 322.283 498.29 314.734 496.887 308.172C495.483 301.609 491.882 295.782 488.32 290.123" fill="#393939"/>
<path d="M949.109 307H598.868C596.514 307.003 594.258 307.914 592.593 309.533C590.929 311.151 589.992 313.345 589.989 315.634V534.366C589.992 536.655 590.929 538.849 592.593 540.467C594.258 542.086 596.514 542.997 598.868 543H949.109C951.463 542.997 953.72 542.086 955.384 540.467C957.049 538.849 957.985 536.655 957.989 534.366V315.634C957.985 313.345 957.049 311.151 955.384 309.533C953.72 307.914 951.463 307.003 949.109 307V307ZM956.016 534.366C956.014 536.146 955.285 537.853 953.991 539.112C952.696 540.371 950.94 541.079 949.109 541.081H598.868C597.037 541.079 595.282 540.371 593.987 539.112C592.692 537.853 591.964 536.146 591.962 534.366V315.634C591.964 313.854 592.692 312.147 593.987 310.888C595.282 309.629 597.037 308.921 598.868 308.919H949.109C950.94 308.921 952.696 309.629 953.991 310.888C955.285 312.147 956.014 313.854 956.016 315.634V534.366Z" fill="#3F3D56"/>
<path d="M673.917 410.391H618.723C616.502 410.388 614.373 409.492 612.803 407.899C611.232 406.305 610.349 404.145 610.346 401.891V345.891C610.349 343.638 611.232 341.477 612.803 339.884C614.373 338.29 616.502 337.394 618.723 337.391H673.917C676.138 337.394 678.267 338.29 679.838 339.884C681.408 341.477 682.292 343.638 682.294 345.891V401.891C682.292 404.145 681.408 406.305 679.838 407.899C678.267 409.492 676.138 410.388 673.917 410.391V410.391Z" fill="#0500FF"/>
<path d="M930.896 469.9H617.477C615.778 469.9 614.149 469.216 612.947 467.997C611.746 466.778 611.071 465.124 611.071 463.4C611.071 461.676 611.746 460.023 612.947 458.804C614.149 457.585 615.778 456.9 617.477 456.9H930.896C932.595 456.9 934.224 457.585 935.426 458.804C936.627 460.023 937.302 461.676 937.302 463.4C937.302 465.124 936.627 466.778 935.426 467.997C934.224 469.216 932.595 469.9 930.896 469.9V469.9Z" fill="#CCCCCC"/>
<path d="M931.106 438.4H617.688C615.989 438.4 614.36 437.716 613.158 436.497C611.957 435.278 611.282 433.624 611.282 431.9C611.282 430.176 611.957 428.523 613.158 427.304C614.36 426.085 615.989 425.4 617.688 425.4H931.106C932.806 425.4 934.435 426.085 935.636 427.304C936.838 428.523 937.513 430.176 937.513 431.9C937.513 433.624 936.838 435.278 935.636 436.497C934.435 437.716 932.806 438.4 931.106 438.4V438.4Z" fill="#CCCCCC"/>
<path d="M776.368 395.391H730.046C728.346 395.391 726.717 394.706 725.516 393.487C724.314 392.268 723.639 390.615 723.639 388.891C723.639 387.167 724.314 385.513 725.516 384.294C726.717 383.075 728.346 382.391 730.046 382.391H776.368C778.067 382.391 779.697 383.075 780.898 384.294C782.1 385.513 782.775 387.167 782.775 388.891C782.775 390.615 782.1 392.268 780.898 393.487C779.697 394.706 778.067 395.391 776.368 395.391V395.391Z" fill="#CCCCCC"/>
<path d="M931.106 363.4H730.046C728.346 363.4 726.717 362.716 725.516 361.497C724.314 360.278 723.639 358.624 723.639 356.9C723.639 355.176 724.314 353.523 725.516 352.304C726.717 351.085 728.346 350.4 730.046 350.4H931.106C932.805 350.4 934.435 351.085 935.636 352.304C936.838 353.523 937.513 355.176 937.513 356.9C937.513 358.624 936.838 360.278 935.636 361.497C934.435 362.716 932.805 363.4 931.106 363.4V363.4Z" fill="#CCCCCC"/>
<path d="M768.483 501.9H617.477C615.778 501.9 614.149 501.216 612.947 499.997C611.746 498.778 611.071 497.124 611.071 495.4C611.071 493.676 611.746 492.023 612.947 490.804C614.149 489.585 615.778 488.9 617.477 488.9H768.483C770.183 488.9 771.812 489.585 773.013 490.804C774.215 492.023 774.89 493.676 774.89 495.4C774.89 497.124 774.215 498.778 773.013 499.997C771.812 501.216 770.183 501.9 768.483 501.9V501.9Z" fill="#CCCCCC"/>
<path opacity="0.1" d="M191.933 683.255C242.228 683.255 283 667.272 283 647.555C283 627.838 242.228 611.854 191.933 611.854C141.638 611.854 100.865 627.838 100.865 647.555C100.865 667.272 141.638 683.255 191.933 683.255Z" fill="black"/>
<path d="M179.842 284H179.842C187.61 284 195.06 287.212 200.553 292.93C206.046 298.647 209.132 306.402 209.132 314.488V344.976H150.552V314.488C150.552 306.402 153.637 298.647 159.13 292.93C164.623 287.212 172.073 284 179.842 284L179.842 284Z" fill="#393939"/>
<path d="M204.416 343.167L203.989 346.045L202.43 356.602V372.621L184.558 381.406L168.175 382.956L161.721 361.015L160.729 357.636C160.729 357.636 161.016 357.434 161.518 357.088C161.955 356.778 162.56 356.354 163.285 355.848C165.48 354.313 168.736 352.008 171.65 349.884C176.615 346.267 171.65 324.047 171.65 324.047L188.033 322.497C188.033 322.497 189.522 326.631 191.012 335.416C192.129 342.004 199.109 343.069 202.529 343.187C203.158 343.218 203.788 343.211 204.416 343.167V343.167Z" fill="#FFB9B9"/>
<path d="M151.792 585.002V623.241H161.721L166.686 583.452L151.792 585.002Z" fill="#FFB9B9"/>
<path d="M157.253 610.323L151.296 609.289C151.296 609.289 148.814 629.959 146.332 634.609C143.849 639.26 130.445 658.38 137.892 659.413C145.339 660.446 155.268 659.413 155.764 656.829C156.26 654.246 160.232 638.743 160.728 639.777C161.225 640.81 160.728 651.145 160.728 651.145H162.714V638.743C162.714 638.743 171.154 632.542 168.672 629.442C166.189 626.342 163.707 618.59 163.707 618.59L164.204 610.839L157.253 610.323Z" fill="#393939"/>
<path d="M227.252 585.002V623.241H217.323L212.359 583.452L227.252 585.002Z" fill="#FFB9B9"/>
<path d="M221.791 610.323L227.748 609.289C227.748 609.289 230.231 629.959 232.713 634.609C235.195 639.26 248.599 658.38 241.152 659.413C233.706 660.446 223.777 659.413 223.28 656.829C222.784 654.246 218.812 638.743 218.316 639.777C217.82 640.81 218.316 651.145 218.316 651.145H216.33V638.743C216.33 638.743 207.891 632.542 210.373 629.442C212.855 626.342 215.337 618.59 215.337 618.59L214.841 610.839L221.791 610.323Z" fill="#393939"/>
<path d="M179.593 334.382C190.012 334.382 198.458 325.591 198.458 314.746C198.458 303.901 190.012 295.11 179.593 295.11C169.175 295.11 160.729 303.901 160.729 314.746C160.729 325.591 169.175 334.382 179.593 334.382Z" fill="#FFB9B9"/>
<path d="M238.67 400.525L226.259 448.582L224.77 465.635L215.834 448.582C215.834 448.582 220.798 440.831 221.791 435.664C222.784 430.496 227.252 403.109 227.252 403.109L213.292 371.872L212.716 370.585L207.891 370.554L202.926 363.837L205.905 355.569V349.368L203.989 346.045L202.926 344.201L204.416 343.167L212.359 342.134C212.684 342.107 213.012 342.129 213.332 342.201C215.412 342.599 220.436 344.976 224.273 358.153C229.238 375.205 238.67 400.525 238.67 400.525Z" fill="#FFB9B9"/>
<path d="M168.175 394.324V425.329L151.793 472.869C151.793 472.869 147.821 492.505 135.906 493.539C123.992 494.572 143.849 470.285 143.849 470.285L156.757 419.128V392.257C156.757 392.257 153.282 378.305 152.289 372.104C151.549 367.474 153.019 362.56 153.813 360.364C154.081 359.62 154.275 359.186 154.275 359.186L160.729 357.119L161.518 357.088L161.721 361.015L162.218 370.554L168.175 394.324Z" fill="#FFB9B9"/>
<path d="M208.883 411.893C208.883 411.893 212.359 423.262 212.855 423.778C213.351 424.295 201.933 426.362 201.933 426.362H180.09L169.168 421.195L170.161 411.376L208.883 411.893Z" fill="#FFB9B9"/>
<path d="M214.344 418.611C214.344 418.611 213.352 429.979 215.834 434.113C218.316 438.247 224.77 445.998 226.756 468.735C228.741 491.472 231.224 577.251 232.216 580.868C233.209 584.485 236.188 589.136 233.209 589.653C230.231 590.169 206.898 595.854 206.898 589.653C206.898 583.452 206.898 581.385 205.409 580.351C203.919 579.318 186.047 498.189 186.047 498.189L169.665 582.418C169.665 582.418 176.118 591.72 166.19 590.686C156.261 589.653 138.885 588.103 140.871 582.935C141.898 580.425 142.728 577.833 143.353 575.184L153.282 482.17C153.282 482.17 155.268 442.898 168.175 421.97L169.168 416.99C169.168 416.99 187.537 418.611 193.99 420.678C200.444 422.745 214.344 418.611 214.344 418.611Z" fill="#393939"/>
<path d="M213.292 371.872C212.875 377.52 210.413 411.206 210.869 414.994C210.869 414.994 213.352 418.095 205.905 416.544C198.458 414.994 176.615 416.544 174.133 417.061C171.65 417.578 168.672 419.645 168.672 416.028C168.672 412.41 169.665 401.559 168.175 400.009C166.686 398.458 159.239 385.023 159.736 381.406C160.093 378.807 156.097 366.88 153.813 360.364C154.081 359.62 154.275 359.186 154.275 359.186L160.729 357.119L161.518 357.088C161.955 356.778 162.561 356.354 163.285 355.848L165.693 367.971L166.686 372.105C166.686 372.105 183.069 372.105 195.976 362.286L202.529 343.188C203.158 343.218 203.788 343.211 204.416 343.167L212.359 342.134C212.685 342.107 213.012 342.129 213.332 342.201L205.905 365.387L212.716 370.585L213.352 371.071C213.352 371.071 213.332 371.355 213.292 371.872Z" fill="#FF6584"/>
<path d="M193.246 310.87H166.934L160.977 294.852H197.714L193.246 310.87Z" fill="#393939"/>
<path d="M162.082 322.592C162.872 322.354 163.018 320.383 162.407 318.19C161.797 315.997 160.661 314.413 159.871 314.651C159.081 314.889 158.936 316.86 159.546 319.053C160.157 321.246 161.292 322.831 162.082 322.592Z" fill="#FFB9B9"/>
<path d="M199.64 319.053C200.251 316.86 200.105 314.889 199.315 314.651C198.525 314.413 197.39 315.997 196.779 318.19C196.169 320.383 196.315 322.354 197.105 322.592C197.895 322.83 199.03 321.246 199.64 319.053Z" fill="#FFB9B9"/>
<path d="M138.712 485.056H37V619.856H138.712V485.056Z" fill="#EEEEEE"/>
<path d="M119.816 519.833H55.8954C54.931 519.833 54.1492 520.647 54.1492 521.651V537.713C54.1492 538.717 54.931 539.53 55.8954 539.53H119.816C120.781 539.53 121.563 538.717 121.563 537.713V521.651C121.563 520.647 120.781 519.833 119.816 519.833Z" fill="#393939"/>
<path d="M105.596 525.373C106.576 525.373 107.37 524.547 107.37 523.527C107.37 522.507 106.576 521.68 105.596 521.68C104.617 521.68 103.822 522.507 103.822 523.527C103.822 524.547 104.617 525.373 105.596 525.373Z" fill="#6C63FF"/>
<path d="M110.918 525.373C111.898 525.373 112.692 524.547 112.692 523.527C112.692 522.507 111.898 521.68 110.918 521.68C109.939 521.68 109.144 522.507 109.144 523.527C109.144 524.547 109.939 525.373 110.918 525.373Z" fill="#6C63FF"/>
<path d="M116.24 525.373C117.22 525.373 118.014 524.547 118.014 523.527C118.014 522.507 117.22 521.68 116.24 521.68C115.261 521.68 114.466 522.507 114.466 523.527C114.466 524.547 115.261 525.373 116.24 525.373Z" fill="#6C63FF"/>
<path d="M119.816 542.607H55.8954C54.931 542.607 54.1492 543.421 54.1492 544.425V560.487C54.1492 561.49 54.931 562.304 55.8954 562.304H119.816C120.781 562.304 121.563 561.49 121.563 560.487V544.425C121.563 543.421 120.781 542.607 119.816 542.607Z" fill="#393939"/>
<path d="M105.596 548.148C106.576 548.148 107.37 547.321 107.37 546.301C107.37 545.281 106.576 544.455 105.596 544.455C104.617 544.455 103.822 545.281 103.822 546.301C103.822 547.321 104.617 548.148 105.596 548.148Z" fill="#6C63FF"/>
<path d="M110.918 548.148C111.898 548.148 112.692 547.321 112.692 546.301C112.692 545.281 111.898 544.455 110.918 544.455C109.939 544.455 109.144 545.281 109.144 546.301C109.144 547.321 109.939 548.148 110.918 548.148Z" fill="#6C63FF"/>
<path d="M116.24 548.148C117.22 548.148 118.014 547.321 118.014 546.301C118.014 545.281 117.22 544.455 116.24 544.455C115.261 544.455 114.466 545.281 114.466 546.301C114.466 547.321 115.261 548.148 116.24 548.148Z" fill="#6C63FF"/>
<path d="M119.816 565.382H55.8954C54.931 565.382 54.1492 566.196 54.1492 567.2V583.262C54.1492 584.265 54.931 585.079 55.8954 585.079H119.816C120.781 585.079 121.563 584.265 121.563 583.262V567.2C121.563 566.196 120.781 565.382 119.816 565.382Z" fill="#393939"/>
<path d="M105.596 570.922C106.576 570.922 107.37 570.095 107.37 569.075C107.37 568.055 106.576 567.229 105.596 567.229C104.617 567.229 103.822 568.055 103.822 569.075C103.822 570.095 104.617 570.922 105.596 570.922Z" fill="#6C63FF"/>
<path d="M110.918 570.922C111.898 570.922 112.692 570.095 112.692 569.075C112.692 568.055 111.898 567.229 110.918 567.229C109.939 567.229 109.144 568.055 109.144 569.075C109.144 570.095 109.939 570.922 110.918 570.922Z" fill="#6C63FF"/>
<path d="M116.24 570.922C117.22 570.922 118.014 570.095 118.014 569.075C118.014 568.055 117.22 567.229 116.24 567.229C115.261 567.229 114.466 568.055 114.466 569.075C114.466 570.095 115.261 570.922 116.24 570.922Z" fill="#6C63FF"/>
<defs>
<filter id="filter0_i" x="0" y="0" width="628.8" height="637.916" filterUnits="userSpaceOnUse" color-interpolation-filters="sRGB">
<feFlood flood-opacity="0" result="BackgroundImageFix"/>
<feBlend mode="normal" in="SourceGraphic" in2="BackgroundImageFix" result="shape"/>
<feColorMatrix in="SourceAlpha" type="matrix" values="0 0 0 0 0 0 0 0 0 0 0 0 0 0 0 0 0 0 127 0" result="hardAlpha"/>
<feOffset dy="4"/>
<feGaussianBlur stdDeviation="2"/>
<feComposite in2="hardAlpha" operator="arithmetic" k2="-1" k3="1"/>
<feColorMatrix type="matrix" values="0 0 0 0 0 0 0 0 0 0 0 0 0 0 0 0 0 0 0.25 0"/>
<feBlend mode="normal" in2="shape" result="effect1_innerShadow"/>
</filter>
</defs>
</svg>
